<?xml version="1.0" encoding="utf-8"?>
<!-- Generator: Adobe Illustrator 25.1.0, SVG Export Plug-In . SVG Version: 6.00 Build 0)  -->
<svg version="1.1" id="bg" xmlns="http://www.w3.org/2000/svg" xmlns:xlink="http://www.w3.org/1999/xlink" x="0px" y="0px"
	 viewBox="0 0 1887.9 410.2" style="enable-background:new 0 0 1887.9 410.2;" xml:space="preserve">
<style type="text/css">
	.st0{fill:url(#SVGID_1_);}
	.st1{opacity:0.5;fill:url(#SVGID_2_);}
	.st2{fill:#282828;}
	.st3{fill:#D3D7D7;}
	.st4{fill:#23893B;}
	.st5{fill:#EBDE40;}
	.st6{fill:#111411;}
	.st7{fill-rule:evenodd;clip-rule:evenodd;fill:#1B539C;}
	.st8{fill-rule:evenodd;clip-rule:evenodd;fill:#909090;}
</style>
<g>
	<g>
		<g>
			<linearGradient id="SVGID_1_" gradientUnits="userSpaceOnUse" x1="0" y1="205.0757" x2="1887.8833" y2="205.0757">
				<stop  offset="0" style="stop-color:#DDEDE6"/>
				<stop  offset="1" style="stop-color:#F7FBFB"/>
			</linearGradient>
			<path class="st0" d="M1682.8,0H205.1C91.8,0,0,91.8,0,205.1v0c0,113.3,91.8,205.1,205.1,205.1h1477.7
				c113.3,0,205.1-91.8,205.1-205.1v0C1887.9,91.8,1796.1,0,1682.8,0z"/>
			<linearGradient id="SVGID_2_" gradientUnits="userSpaceOnUse" x1="0" y1="205.0757" x2="1887.8833" y2="205.0757">
				<stop  offset="0" style="stop-color:#FFFFFF"/>
				<stop  offset="1" style="stop-color:#000000"/>
			</linearGradient>
			<path class="st1" d="M1682.8,0H205.1C91.8,0,0,91.8,0,205.1v0c0,113.3,91.8,205.1,205.1,205.1h1477.7
				c113.3,0,205.1-91.8,205.1-205.1v0C1887.9,91.8,1796.1,0,1682.8,0z M1682.8,403.1H205.1c-109.2,0-198-88.8-198-198
				c0-109.2,88.8-198,198-198h1477.7c109.2,0,198,88.8,198,198C1880.8,314.3,1792,403.1,1682.8,403.1z"/>
		</g>
	</g>
	<g>
		<g>
			<g>
				<path class="st2" d="M743.4,177l4.3-0.4c0.2,1.7,0.7,3.1,1.4,4.2c0.7,1.1,1.9,2,3.4,2.7c1.6,0.7,3.3,1,5.2,1
					c1.7,0,3.2-0.3,4.6-0.8c1.3-0.5,2.3-1.2,2.9-2.1c0.6-0.9,1-1.9,1-2.9c0-1.1-0.3-2-0.9-2.8c-0.6-0.8-1.6-1.5-3.1-2
					c-0.9-0.4-2.9-0.9-6.1-1.7c-3.1-0.8-5.3-1.5-6.6-2.1c-1.6-0.9-2.8-1.9-3.6-3.2c-0.8-1.3-1.2-2.7-1.2-4.3c0-1.7,0.5-3.3,1.5-4.8
					c1-1.5,2.4-2.6,4.3-3.4c1.9-0.8,4-1.2,6.3-1.2c2.5,0,4.8,0.4,6.7,1.2c1.9,0.8,3.4,2,4.5,3.6c1,1.6,1.6,3.4,1.7,5.4l-4.3,0.3
					c-0.2-2.2-1-3.8-2.4-4.9c-1.3-1.1-3.3-1.7-6-1.7c-2.7,0-4.7,0.5-6,1.5c-1.3,1-1.9,2.2-1.9,3.6c0,1.2,0.4,2.2,1.3,3
					c0.9,0.8,3.1,1.6,6.8,2.4c3.7,0.8,6.2,1.6,7.6,2.2c2,0.9,3.5,2.1,4.4,3.5c0.9,1.4,1.4,3,1.4,4.9c0,1.8-0.5,3.5-1.6,5.1
					c-1,1.6-2.5,2.9-4.5,3.8s-4.1,1.3-6.6,1.3c-3.1,0-5.7-0.4-7.8-1.4c-2.1-0.9-3.7-2.3-4.9-4.1C744.1,181.3,743.5,179.2,743.4,177z
					"/>
				<path class="st2" d="M776.9,187.9v-34.2h24.7v4h-20.2v10.5h18.9v4h-18.9v11.6h21v4H776.9z"/>
				<path class="st2" d="M833,175.9l4.5,1.1c-0.9,3.7-2.7,6.5-5.1,8.5c-2.5,1.9-5.5,2.9-9,2.9c-3.7,0-6.7-0.7-9-2.2
					c-2.3-1.5-4.1-3.7-5.3-6.5c-1.2-2.8-1.8-5.9-1.8-9.2c0-3.6,0.7-6.7,2-9.3c1.4-2.6,3.3-4.7,5.8-6c2.5-1.4,5.3-2.1,8.3-2.1
					c3.4,0,6.3,0.9,8.6,2.6c2.3,1.7,4,4.2,4.9,7.3l-4.5,1c-0.8-2.5-1.9-4.3-3.5-5.4c-1.5-1.1-3.4-1.7-5.7-1.7
					c-2.6,0-4.8,0.6-6.6,1.9c-1.8,1.3-3,2.9-3.7,5.1c-0.7,2.1-1.1,4.3-1.1,6.6c0,2.9,0.4,5.4,1.3,7.6c0.8,2.2,2.2,3.8,4,4.9
					c1.8,1.1,3.7,1.6,5.8,1.6c2.5,0,4.7-0.7,6.4-2.2C831.2,181,832.4,178.8,833,175.9z"/>
				<path class="st2" d="M843.2,187.9v-34.2h15.1c3,0,5.4,0.3,6.9,0.9c1.6,0.6,2.9,1.7,3.8,3.3c0.9,1.6,1.4,3.3,1.4,5.2
					c0,2.4-0.8,4.5-2.4,6.1c-1.6,1.7-4,2.7-7.3,3.2c1.2,0.6,2.1,1.1,2.7,1.7c1.3,1.2,2.6,2.7,3.8,4.5l5.9,9.3h-5.7l-4.5-7.1
					c-1.3-2-2.4-3.6-3.3-4.7c-0.9-1.1-1.6-1.8-2.3-2.3c-0.7-0.4-1.4-0.7-2.1-0.9c-0.5-0.1-1.4-0.2-2.5-0.2h-5.2v15.2H843.2z
					 M847.7,168.8h9.7c2.1,0,3.7-0.2,4.8-0.6c1.2-0.4,2-1.1,2.7-2c0.6-0.9,0.9-2,0.9-3.1c0-1.6-0.6-2.9-1.8-4c-1.2-1-3-1.6-5.6-1.6
					h-10.8V168.8z"/>
				<path class="st2" d="M877.7,187.9v-34.2h24.7v4h-20.2v10.5h18.9v4h-18.9v11.6h21v4H877.7z"/>
				<path class="st2" d="M918.1,187.9v-30.1h-11.3v-4h27.1v4h-11.3v30.1H918.1z"/>
				<path class="st2" d="M931.3,187.9l13.1-34.2h4.9l14,34.2h-5.2l-4-10.3h-14.3l-3.8,10.3H931.3z M941.1,173.9h11.6l-3.6-9.5
					c-1.1-2.9-1.9-5.2-2.4-7.1c-0.4,2.2-1,4.4-1.8,6.5L941.1,173.9z"/>
				<path class="st2" d="M966.9,187.9v-34.2h15.1c3,0,5.4,0.3,6.9,0.9c1.6,0.6,2.9,1.7,3.8,3.3c0.9,1.6,1.4,3.3,1.4,5.2
					c0,2.4-0.8,4.5-2.4,6.1c-1.6,1.7-4,2.7-7.3,3.2c1.2,0.6,2.1,1.1,2.7,1.7c1.3,1.2,2.6,2.7,3.8,4.5l5.9,9.3h-5.7l-4.5-7.1
					c-1.3-2-2.4-3.6-3.3-4.7c-0.9-1.1-1.6-1.8-2.3-2.3c-0.7-0.4-1.4-0.7-2.1-0.9c-0.5-0.1-1.4-0.2-2.5-0.2h-5.2v15.2H966.9z
					 M971.4,168.8h9.7c2.1,0,3.7-0.2,4.8-0.6c1.2-0.4,2-1.1,2.7-2c0.6-0.9,0.9-2,0.9-3.1c0-1.6-0.6-2.9-1.8-4c-1.2-1-3-1.6-5.6-1.6
					h-10.8V168.8z"/>
				<path class="st2" d="M1002.1,187.9v-34.2h4.5v34.2H1002.1z"/>
				<path class="st2" d="M1010.8,187.9l13.1-34.2h4.9l14,34.2h-5.2l-4-10.3h-14.3l-3.8,10.3H1010.8z M1020.7,173.9h11.6l-3.6-9.5
					c-1.1-2.9-1.9-5.2-2.4-7.1c-0.4,2.2-1,4.4-1.8,6.5L1020.7,173.9z"/>
				<path class="st2" d="M1057.1,187.9v-34.2h11.8c2.7,0,4.7,0.2,6.1,0.5c2,0.4,3.6,1.3,5,2.4c1.8,1.5,3.1,3.5,4,5.8
					c0.9,2.4,1.3,5.1,1.3,8.1c0,2.6-0.3,4.9-0.9,6.9c-0.6,2-1.4,3.7-2.3,5c-0.9,1.3-2,2.3-3.1,3.1c-1.1,0.8-2.5,1.3-4.1,1.7
					c-1.6,0.4-3.4,0.6-5.5,0.6H1057.1z M1061.6,183.9h7.3c2.3,0,4-0.2,5.3-0.6c1.3-0.4,2.3-1,3.1-1.8c1.1-1.1,1.9-2.5,2.5-4.3
					c0.6-1.8,0.9-4,0.9-6.6c0-3.6-0.6-6.3-1.8-8.2c-1.2-1.9-2.6-3.2-4.3-3.9c-1.2-0.5-3.2-0.7-5.9-0.7h-7.2V183.9z"/>
				<path class="st2" d="M1091.6,187.9v-34.2h24.7v4h-20.2v10.5h18.9v4h-18.9v11.6h21v4H1091.6z"/>
				<path class="st2" d="M848.7,234.1l6.7-0.7c0.4,2.3,1.2,3.9,2.5,5c1.2,1.1,2.9,1.6,5,1.6c2.2,0,3.9-0.5,5-1.4
					c1.1-0.9,1.7-2,1.7-3.3c0-0.8-0.2-1.5-0.7-2.1c-0.5-0.6-1.3-1.1-2.5-1.5c-0.8-0.3-2.6-0.8-5.5-1.5c-3.7-0.9-6.3-2-7.8-3.4
					c-2.1-1.9-3.1-4.2-3.1-6.9c0-1.7,0.5-3.4,1.5-4.9c1-1.5,2.4-2.7,4.3-3.5c1.9-0.8,4.1-1.2,6.7-1.2c4.3,0,7.5,0.9,9.7,2.8
					c2.2,1.9,3.3,4.4,3.4,7.5l-6.9,0.3c-0.3-1.8-0.9-3-1.9-3.8c-1-0.8-2.4-1.2-4.4-1.2c-2,0-3.6,0.4-4.7,1.2
					c-0.7,0.5-1.1,1.2-1.1,2.1c0,0.8,0.3,1.5,1,2.1c0.9,0.7,3,1.5,6.3,2.3c3.4,0.8,5.8,1.6,7.4,2.5c1.6,0.8,2.9,2,3.8,3.5
					c0.9,1.5,1.4,3.3,1.4,5.4c0,2-0.5,3.8-1.6,5.5c-1.1,1.7-2.6,3-4.6,3.8c-2,0.8-4.5,1.2-7.4,1.2c-4.3,0-7.6-1-10-3
					C850.5,240.8,849.1,237.9,848.7,234.1z"/>
				<path class="st2" d="M913.1,245.2h-7.5l-3-7.8h-13.7l-2.8,7.8h-7.3l13.3-34.2h7.3L913.1,245.2z M900.4,231.7l-4.7-12.7
					l-4.6,12.7H900.4z"/>
				<path class="st2" d="M916.7,211h6.9v18.5c0,2.9,0.1,4.8,0.3,5.7c0.3,1.4,1,2.5,2.1,3.4c1.1,0.8,2.6,1.3,4.6,1.3
					c2,0,3.4-0.4,4.4-1.2c1-0.8,1.6-1.8,1.8-2.9c0.2-1.2,0.3-3.1,0.3-5.8V211h6.9V229c0,4.1-0.2,7-0.6,8.7c-0.4,1.7-1.1,3.1-2.1,4.3
					c-1,1.2-2.3,2.1-4,2.8c-1.7,0.7-3.9,1-6.6,1c-3.3,0-5.7-0.4-7.4-1.1c-1.7-0.8-3-1.7-4-2.9c-1-1.2-1.6-2.5-1.9-3.8
					c-0.4-2-0.7-4.8-0.7-8.7V211z M926.1,209.1l3.2-7h7.3l-6.4,7H926.1z"/>
				<path class="st2" d="M951.2,211h12.6c2.8,0,5,0.2,6.5,0.7c2,0.6,3.7,1.6,5.2,3.1c1.4,1.5,2.5,3.4,3.3,5.5
					c0.7,2.2,1.1,4.9,1.1,8.1c0,2.8-0.3,5.2-1,7.3c-0.9,2.5-2.1,4.5-3.7,6c-1.2,1.2-2.8,2.1-4.8,2.7c-1.5,0.5-3.6,0.7-6.1,0.7h-13
					V211z M958.1,216.8v22.6h5.2c1.9,0,3.3-0.1,4.2-0.3c1.1-0.3,2-0.8,2.8-1.4c0.7-0.7,1.3-1.8,1.8-3.3c0.5-1.5,0.7-3.6,0.7-6.3
					c0-2.6-0.2-4.7-0.7-6.1c-0.5-1.4-1.1-2.5-2-3.3c-0.8-0.8-1.9-1.3-3.2-1.6c-1-0.2-2.9-0.3-5.7-0.3H958.1z"/>
				<path class="st2" d="M985.7,245.2V211h25.3v5.8h-18.4v7.6h17.2v5.8h-17.2v9.3h19.1v5.8H985.7z"/>
			</g>
			<g>
				<g id="XMLID_171_">
					<path id="XMLID_844_" class="st3" d="M1282.1,144.5c0.7,0,1.5,0,2.2,0.1l0.2-2.6c-0.5,0-1.4,0-2.5,0V144.5z"/>
					<path id="XMLID_843_" class="st3" d="M1310.9,156.4c3.5,0.7,7,1.4,10.6,2.3l0.8-2.3c0,0-0.1,0-0.1,0c-3.6-0.9-7.2-1.7-10.7-2.4
						L1310.9,156.4z"/>
					<path id="XMLID_842_" class="st3" d="M1299.7,154.7c3.4,0.4,6.9,0.9,10.3,1.5l0.6-2.5c-3.6-0.7-7.2-1.3-10.7-1.7L1299.7,154.7z
						"/>
					<path id="XMLID_841_" class="st3" d="M1289.2,153.8c3.2,0.2,6.4,0.4,9.6,0.8l0.3-2.7c-3.2-0.4-6.4-0.7-9.5-0.9L1289.2,153.8z"
						/>
					<path id="XMLID_840_" class="st3" d="M1280.5,153.6c2.6,0,5.1,0,7.7,0.1l0.4-2.8c-2.6-0.1-5.3-0.2-7.9-0.2L1280.5,153.6z"/>
					<path id="XMLID_839_" class="st3" d="M1271.7,154c2.7-0.2,5.3-0.3,7.9-0.3l0.2-2.9c-2.7,0-5.4,0.1-8.1,0.3L1271.7,154z"/>
					<path id="XMLID_838_" class="st3" d="M1263.1,154.7c2.5-0.3,5.1-0.5,7.6-0.7l0-2.9c-2.7,0.2-5.4,0.5-8.1,0.8L1263.1,154.7z"/>
					<path id="XMLID_837_" class="st3" d="M1258.7,149.2c0,0.1,0.1,0.1,0.1,0.2l0.4,2c2.3-0.4,4.6-0.6,7-0.9l-0.2-2c0,0,0-0.1,0-0.1
						C1263.5,148.6,1261,148.9,1258.7,149.2"/>
					<path id="XMLID_836_" class="st3" d="M1266.9,148.4C1266.9,148.4,1266.9,148.4,1266.9,148.4l0.2,2.1c2.7-0.3,5.4-0.4,8-0.5
						l-0.1-1.9v0C1272.3,148.1,1269.6,148.2,1266.9,148.4"/>
					<path id="XMLID_835_" class="st3" d="M1276,148l0.1,1.9c1.3,0,2.7-0.1,4-0.1c0.1,0,0.1,0,0.2,0c0.1,0,0.1,0,0.2,0
						c1.5,0,3,0,4.5,0.1l0.1-1.7C1282,148,1279,148,1276,148"/>
					<path id="XMLID_834_" class="st3" d="M1285.9,149.9c1,0,2,0.1,3,0.1c0.1,0,0.1,0,0.2,0c0,0,0.1,0,0.1,0
						c1.4,0.1,2.8,0.2,4.2,0.3l0.2-1.6c-2.6-0.2-5.1-0.4-7.6-0.5L1285.9,149.9z"/>
					<path id="XMLID_833_" class="st3" d="M1294.4,150.5c2.9,0.3,5.9,0.6,8.9,1.1l0.4-1.6c-3-0.4-6.1-0.8-9.1-1.1L1294.4,150.5z"/>
					<path id="XMLID_832_" class="st3" d="M1304.2,151.7c3.1,0.5,6.3,1.1,9.5,1.8l0.5-1.7c-3.2-0.7-6.4-1.2-9.6-1.7L1304.2,151.7z"
						/>
					<path id="XMLID_831_" class="st3" d="M1322.6,155.5l0.6-1.7c-2.6-0.7-5.3-1.3-8-1.9l-0.5,1.7c2.6,0.5,5.2,1.2,7.8,1.8
						C1322.5,155.5,1322.6,155.5,1322.6,155.5"/>
					<path id="XMLID_830_" class="st3" d="M1303.2,146.1l0.3-2.9l-1.8-0.3l-0.3,2.9C1301.9,146,1302.6,146.1,1303.2,146.1"/>
					<path id="XMLID_829_" class="st3" d="M1308.3,144.2c-1.4-0.2-2.8-0.4-4-0.6l-0.2,2.7c1.2,0.2,2.5,0.4,3.8,0.6L1308.3,144.2z"/>
					<path id="XMLID_828_" class="st3" d="M1315,145.4C1315,145.4,1315,145.3,1315,145.4c-0.4-0.2-3-0.6-5.8-1l-0.5,2.8
						c1.9,0.3,3.8,0.6,5.7,1L1315,145.4z"/>
					<path id="XMLID_827_" class="st3" d="M1315.8,141.2c-0.3-0.1-0.9-0.3-1.9-0.5l-0.7,3.3c0.9,0.2,1.6,0.3,1.9,0.4L1315.8,141.2z"
						/>
					<path id="XMLID_826_" class="st3" d="M1316.6,137.4c-0.5-0.2-2.7-0.6-5.4-1l-0.5,2.8c2.7,0.4,4.4,0.8,5.3,1.1L1316.6,137.4z"/>
					<path id="XMLID_825_" class="st3" d="M1327.4,138.1c-0.1,0.2-0.1,0.3-0.1,0.3c-1.2-1.6-2.6-1.3-3.4-0.3
						c-1.8,2.3-2.5,8-3.4,11.1l-0.9-0.1c1.6,0.3,3.2,0.7,4.8,1L1327.4,138.1z"/>
					<path id="XMLID_824_" class="st3" d="M1317.5,132.6c-0.2-0.1-0.9-0.2-1.9-0.4l-0.8,3.9c0.8,0.1,1.5,0.3,1.9,0.4L1317.5,132.6z"
						/>
					<path id="XMLID_823_" class="st3" d="M1304.5,142.8c0.5,0.1,0.9,0.1,1.4,0.2l0.6-3.5c-0.6-0.1-1.2-0.2-1.7-0.3l-0.3,3.4
						C1304.5,142.7,1304.5,142.7,1304.5,142.8"/>
					<path id="XMLID_822_" class="st3" d="M1313,140.6c-1.5-0.3-3.5-0.6-5.6-0.9l-0.6,3.5c2,0.3,4,0.6,5.5,0.8L1313,140.6z"/>
					<path id="XMLID_821_" class="st3" d="M1297,135.2l-1.4,0c-0.6,0-1.5,1.4-1.6,3.6l-0.5,6.2c1.4,0.1,2.7,0.3,4,0.5l0.6-6.7
						c0.1-1.5-0.1-2.8-0.6-3.3C1297.3,135.3,1297.2,135.2,1297,135.2"/>
					<path id="XMLID_820_" class="st3" d="M1304.1,134.7l-2.1-0.3l-0.6,3.8l2.4,0.3c0-0.1,0.1-0.2,0.2-0.2l0.3-3
						c-0.1-0.1-0.2-0.2-0.1-0.4C1304,134.8,1304,134.7,1304.1,134.7"/>
					<path id="XMLID_819_" class="st3" d="M1304.8,138.3c1.9,0.3,3.5,0.5,5,0.8l0.5-2.8c-1.8-0.3-3.6-0.5-5.2-0.8L1304.8,138.3z"/>
					<path id="XMLID_818_" class="st3" d="M1306.9,134.8l0.6-3.8c-0.7-0.1-1.4-0.2-2.1-0.3l-0.3,3.8
						C1305.7,134.6,1306.3,134.7,1306.9,134.8"/>
					<path id="XMLID_817_" class="st3" d="M1307.9,134.9c2,0.3,4.2,0.6,6.1,1l0.8-3.9c-1.7-0.3-4-0.6-6.2-0.9L1307.9,134.9z"/>
					<path id="XMLID_816_" class="st3" d="M1305.6,129.8C1305.6,129.8,1305.6,129.8,1305.6,129.8c2.2,0.3,3.9,0.6,5.4,0.8l0.8-3.8
						c-2-0.3-4.1-0.7-5.9-1L1305.6,129.8z"/>
					<path id="XMLID_815_" class="st3" d="M1318.4,127.9c-0.3-0.1-1-0.3-2-0.4c-0.1,0-0.1,0-0.2,0c-0.1,0-0.1,0-0.2-0.1
						c-0.9-0.2-2.1-0.4-3.3-0.6l-0.8,3.8c3.7,0.5,5.1,0.8,5.8,1L1318.4,127.9z"/>
					<path id="XMLID_814_" class="st3" d="M1319.3,123.1c-0.3-0.1-0.9-0.2-1.7-0.4l-0.8,3.9c0.9,0.2,1.4,0.3,1.7,0.4L1319.3,123.1z"
						/>
					<path id="XMLID_813_" class="st3" d="M1316.7,122.5c-1.9-0.4-4.5-0.8-7-1.2l-0.6,3.9c3.2,0.5,5.4,0.9,6.8,1.2L1316.7,122.5z"/>
					<path id="XMLID_812_" class="st3" d="M1308.8,121.2c-0.8-0.1-1.6-0.3-2.4-0.4l-0.3,3.9c0,0,0,0,0,0c0.8,0.1,1.5,0.2,2.1,0.3
						L1308.8,121.2z"/>
					<path id="XMLID_811_" class="st3" d="M1302.3,125.1l-0.6,4l2.9,0.4l0.4-4c0-0.1-0.1-0.1-0.1-0.2L1302.3,125.1z"/>
					<path id="XMLID_810_" class="st3" d="M1285.7,128l0.3-3.9c-0.6-0.1-1.9-0.1-3.5-0.1l0,3.9C1284,127.9,1285.2,128,1285.7,128"/>
					<path id="XMLID_809_" class="st3" d="M1285.3,133.6c-0.5-0.1-1.6-0.1-2.9-0.1l-0.1,3.7c1.2,0,2.1,0.1,2.7,0.2L1285.3,133.6z"/>
					<path id="XMLID_808_" class="st3" d="M1284.9,138.3c-0.5-0.1-2.8-0.2-5.4-0.2l0,3c2,0,4.2,0,5.3,0L1284.9,138.3z"/>
					<path id="XMLID_807_" class="st3" d="M1278.5,141l0.1-3c-0.8,0-1.6,0-2.4,0l0.1,3.1C1276.9,141.1,1277.6,141.1,1278.5,141"/>
					<path id="XMLID_806_" class="st3" d="M1281.2,144.5v-2.5c-1.5,0-3.2,0-4.9,0.1l0.1,2.4C1278,144.4,1279.6,144.4,1281.2,144.5"
						/>
					<path id="XMLID_805_" class="st3" d="M1273.6,144.4c0.6,0,1.2,0,1.8,0l-0.1-2.4l-1.8,0L1273.6,144.4z"/>
					<path id="XMLID_804_" class="st3" d="M1272.7,137.2h2.4c0,0,0,0,0.1-0.1l-0.1-3.7h-2.2L1272.7,137.2z"/>
					<path id="XMLID_803_" class="st3" d="M1281.4,137.1l0.1-3.7c-1.8,0-3.8,0-5.5,0.1l0.1,3.6
						C1277.3,137.1,1279.4,137.1,1281.4,137.1"/>
					<path id="XMLID_802_" class="st3" d="M1268,134.8l-1.4,0.2c-0.6,0.1-1.3,1.6-1.2,3.7l0.2,6.1c1.4-0.1,2.7-0.2,4.1-0.3l-0.2-6.4
						C1269.4,136.1,1268.7,134.7,1268,134.8"/>
					<path id="XMLID_801_" class="st3" d="M1285.7,128.9c-0.5,0-1.9,0-3.5,0c0,0,0,0-0.1,0c0,0,0,0-0.1,0c-0.8,0-1.8,0-2.7,0
						l0.1,3.6c2.2,0,4.8,0,6,0.2L1285.7,128.9z"/>
					<path id="XMLID_800_" class="st3" d="M1278.4,132.5l-0.1-3.6c-0.9,0-1.7,0-2.5,0c0,0,0,0,0,0l0.1,3.7
						C1276.5,132.5,1277.4,132.5,1278.4,132.5"/>
					<path id="XMLID_799_" class="st3" d="M1272,124.1l-0.1,4.1h2.8c0,0,0-0.1,0.1-0.1l-0.1-4c0,0-0.1,0-0.1,0L1272,124.1z"/>
					<path id="XMLID_798_" class="st3" d="M1281.6,127.9l0-3.9c-1.9,0-4.2,0-6,0l0.1,3.9C1277,127.9,1279.4,127.9,1281.6,127.9"/>
					<path id="XMLID_797_" class="st3" d="M1275.5,119.2l0.1,3.9c0.7,0,1.6,0,2.7,0l0-4C1277.2,119.1,1276.2,119.1,1275.5,119.2"/>
					<path id="XMLID_796_" class="st3" d="M1286.5,119.1c-1.3-0.2-4.4-0.1-7.2-0.1c0,0,0,0,0,0l0,4c2.6,0,5.7,0,6.9,0.1
						L1286.5,119.1z"/>
					<path id="XMLID_795_" class="st3" d="M1302.6,116.4l-0.4,3.1l2.9,0.2c0,0,0.1,0,0.1,0c0.1,0,0.1,0,0.2,0h0l0.3-3
						c-0.1,0-0.2-0.1-0.3-0.2L1302.6,116.4z"/>
					<path id="XMLID_794_" class="st3" d="M1313.1,120.9l0.5-3c-2.5-0.4-4.8-0.8-6.9-1l-0.3,3C1308,120.1,1310.5,120.5,1313.1,120.9
						"/>
					<path id="XMLID_793_" class="st3" d="M1320.1,119.3c-1.9-0.5-3.8-0.9-5.6-1.2l-0.5,3c2.4,0.4,4.6,0.8,5.5,1.1L1320.1,119.3z"/>
					<path id="XMLID_792_" class="st3" d="M1326.7,120l5,0.9l1.7-6.8l-2.5-0.8l-1.2,3.3c-0.1,0.2-0.3,0.4-0.6,0.3l-3.5-0.9
						c-0.1,0-0.2-0.1-0.3-0.2c-0.1-0.1-0.1-0.2,0-0.4l0.9-3.5l-2.6-0.7l-0.9,3.7c-0.1,0.2-0.3,0.4-0.5,0.4l-3.1-0.6
						c-0.3,0-0.4-0.3-0.4-0.5l0.7-3.9l-2.5-0.2l-1.3,7.4c1.7,0.3,3.5,0.7,5.4,1.2c0.2,0.1,0.4,0.3,0.4,0.5l-5.7,29.3
						c1.2,0.2,2.4,0.5,3.6,0.7c1.2-4.1,2.5-8.2,4-12.3c0.8-2.2,2.6-3.8,5.5-3l0.8-3.4h0l-3.8-0.6l-0.7,3.5c0,0.2-0.2,0.4-0.5,0.4
						c0,0-0.1,0-0.1,0c-0.3-0.1-0.4-0.3-0.4-0.6l0.8-3.9c0-0.2,0.3-0.4,0.5-0.4l4.3,0.7c0,0,0.1,0,0.1,0l1.9-7.6l-3-0.5l-0.8,3.1
						c-0.1,0.2-0.3,0.4-0.5,0.4c0,0-0.1,0-0.1,0c-0.3-0.1-0.4-0.3-0.3-0.6l0.8-3.1l-1-0.2c-0.3,0-0.4-0.3-0.4-0.5
						C1326.2,120.1,1326.4,119.9,1326.7,120"/>
					<path id="XMLID_791_" class="st3" d="M1305.9,115.5l0.6-7.2l-3-0.4l-0.5,3.5c0,0.3-0.3,0.4-0.5,0.4l-4.1-0.5
						c-0.3,0-0.4-0.3-0.4-0.5l0.4-3.5l-2.9-0.1l-0.1,3.6c0,0.1-0.1,0.3-0.2,0.3c-0.1,0.1-0.2,0.1-0.4,0.1l-4.1-0.3
						c-0.2,0-0.4-0.2-0.4-0.5V107l-1.8,0l-0.6,7.2L1305.9,115.5L1305.9,115.5z"/>
					<path id="XMLID_790_" class="st3" d="M1286.6,118.1l0.2-2.8h0c-0.4-0.2-2.1-0.3-4-0.3l0,2.9
						C1284.3,118,1285.7,118,1286.6,118.1"/>
					<path id="XMLID_789_" class="st3" d="M1281.8,118l0-2.9h-0.1c-2.5,0-5.3,0.1-6.4,0.2l0.1,2.9
						C1276.5,118.2,1279.2,118,1281.8,118"/>
					<path id="XMLID_788_" class="st3" d="M1271.3,115.5v3.2l3.3-0.2l-0.1-3c-0.1,0-0.1-0.1-0.1-0.1L1271.3,115.5z"/>
					<path id="XMLID_787_" class="st3" d="M1255.6,120.1l-0.1-3.1l-5.8,0.8c-0.1,0.1-0.2,0.2-0.3,0.2c-0.1,0-0.2,0-0.2,0l0.6,2.9
						C1251.4,120.6,1253.3,120.4,1255.6,120.1"/>
					<path id="XMLID_786_" class="st3" d="M1253.1,125.4c1.1-0.1,2-0.2,2.7-0.1l-0.2-4.2c-1.1,0.1-2.3,0.3-3.4,0.5L1253.1,125.4z"/>
					<path id="XMLID_785_" class="st3" d="M1251.2,126.6l0.9,3.7c1.4-0.2,2.8-0.3,3.9-0.3l-0.2-3.7
						C1254.8,126.1,1253.1,126.3,1251.2,126.6"/>
					<path id="XMLID_784_" class="st3" d="M1256.2,134.4l-0.2-3.6c-0.6,0-1.3,0-2,0.1l1,3.5C1255.4,134.4,1255.8,134.4,1256.2,134.4
						"/>
					<path id="XMLID_783_" class="st3" d="M1256.4,138.9l-0.1-3.5c-0.9,0-1.9,0-2.9,0.1l0.9,3.5
						C1255,138.9,1255.7,138.9,1256.4,138.9"/>
					<path id="XMLID_782_" class="st3" d="M1253,131c-2.7,0.3-5.8,1.1-7.8,1.6l1,3c2-0.4,5-0.9,7.7-1.1L1253,131
						C1253,131.1,1253,131.1,1253,131"/>
					<path id="XMLID_781_" class="st3" d="M1248.3,144.2c3-0.4,7-1,8.3-1.1l-0.1-3.2c-2.1,0-6.1,0.8-8.8,1.4L1248.3,144.2z"/>
					<path id="XMLID_780_" class="st3" d="M1255.1,155.9c2.4-0.4,4.7-0.7,7.1-1l-0.5-2.8c-2.4,0.3-4.8,0.7-7.2,1.1L1255.1,155.9z"/>
					<path id="XMLID_779_" class="st3" d="M1250.3,150.6c0,0,0,0.1,0,0.1l0.4,2.2c2.5-0.5,5-1,7.6-1.4l-0.4-2c0-0.1,0-0.2,0-0.3
						C1255.3,149.7,1252.7,150.1,1250.3,150.6"/>
					<path id="XMLID_778_" class="st3" d="M1247,157.4c2.4-0.5,4.8-0.9,7.2-1.3l-0.6-2.7c-1,0.2-2,0.4-3,0.6c0,0-0.1,0-0.1,0
						c0,0-0.1,0-0.1,0c-1.4,0.3-2.8,0.6-4.2,0.9L1247,157.4z"/>
					<path id="XMLID_777_" class="st3" d="M1271.4,154.9c-0.1,0-0.1,0.1-0.2,0.1h0c-0.1,0-0.1,0-0.2,0c-9.6,0.7-19.4,2.2-29.9,4.7
						c-0.1,0-0.2,0-0.2,0l-3.3,1.4l0.5,0.9c15.4-3.8,29.7-5.7,43.7-5.7c14.8,0,28.9,2.1,43.1,6.3h0.4l0.5-1.1l-3.5-1.6
						C1304.6,155.4,1288.4,153.7,1271.4,154.9"/>
					<path id="XMLID_776_" class="st3" d="M1241.1,158.6c1.7-0.4,3.3-0.8,4.9-1.1l-0.8-2.4c-1.6,0.4-3.2,0.8-4.8,1.2L1241.1,158.6z"
						/>
					<path id="XMLID_775_" class="st3" d="M1249.4,150.8c-3.4,0.7-6.7,1.6-9.9,2.6l0.6,2.1c3.3-0.9,6.5-1.6,9.6-2.3l-0.4-2.2
						C1249.4,150.9,1249.4,150.8,1249.4,150.8"/>
					<path id="XMLID_774_" class="st3" d="M1324.3,151.1c-3.1-0.7-6.2-1.4-9.3-1.9c-0.1,0-0.1,0-0.2,0c0,0-0.1,0-0.1,0
						c-0.1,0-0.2-0.1-0.2-0.1c-29.5-5.5-54.6-4.9-76.4,2c-0.1,0-0.1,0-0.2,0l-4.1,1.3l0.4,1.4l4.5-1.1c0,0,0.1,0,0.1-0.1
						c23.2-7.5,55-7.4,85,0.4c0.1,0,0.2,0,0.2,0l4.5,1.5l0.6-1.5l-4.5-1.7C1324.4,151.3,1324.4,151.2,1324.3,151.1"/>
					<path id="XMLID_773_" class="st3" d="M1235.5,138.4l3,11.5c1.1-0.4,2.3-0.7,3.5-1c-0.9-3.1-1.6-8.6-3.3-10.8
						C1237.8,137.2,1236.7,136.9,1235.5,138.4"/>
					<path id="XMLID_772_" class="st3" d="M1249.5,121.9C1249.5,121.9,1249.5,121.9,1249.5,121.9c-0.1,0-0.2,0-0.2,0
						c-2.6,0.4-4.9,0.7-6.3,1l1.2,3.9c1.7-0.3,4-0.8,6.2-1.1c0,0,0,0,0.1,0c0.5-0.1,1.1-0.2,1.6-0.2l-1-3.9
						C1250.6,121.7,1250.1,121.8,1249.5,121.9"/>
					<path id="XMLID_771_" class="st3" d="M1236,129.4l-2.7,0.6l1,3.7c2.9-0.7,4.5,0.8,5.3,3c1.4,3.9,2.7,7.8,3.8,11.8
						c4.3-1.1,8.7-2,13.3-2.7l-0.1-1.9c-2.1,0.2-11.5,1.6-11.6,1.6c0,0,0,0-0.1,0c-0.2,0-0.4-0.2-0.5-0.4c0-0.3,0.1-0.5,0.4-0.5
						c0.1,0,1.1-0.2,2.5-0.4l-0.6-2.8c-1.1,0.3-1.8,0.4-1.8,0.4c-0.2,0.1-0.5-0.1-0.6-0.3c-0.1-0.3,0.1-0.5,0.3-0.6
						c0.3-0.1,4.9-1.3,8.6-1.8l-0.9-3.5c-4.1,0.5-8.2,1.4-8.2,1.4c-0.3,0.1-0.5-0.1-0.6-0.4c-0.1-0.3,0.1-0.5,0.4-0.6
						c0.1,0,0.6-0.1,1.4-0.3l-1-3c-0.7,0.2-1.1,0.3-1.1,0.3c-0.3,0.1-0.5-0.1-0.6-0.3c-0.1-0.3,0.1-0.5,0.3-0.6
						c0.3-0.1,4.2-1.2,8.1-1.9l-0.9-3.7c-4,0.6-8.3,1.5-8.4,1.5c-0.3,0.1-0.5-0.1-0.6-0.4c-0.1-0.3,0.1-0.5,0.4-0.6
						c0.1,0,0.7-0.2,1.6-0.3l-1.2-3.9c-0.3,0.1-0.5,0.1-0.6,0.2c-0.2,0.1-0.4,0.2-0.6,0c-0.2-0.2-0.3-0.5-0.1-0.7
						c0.1-0.1,0.2-0.2,1.4-0.5c0,0,0,0,0.1,0c0.1,0,0.1,0,0.2,0c1.1-0.3,3.1-0.6,6.4-1.1l-0.6-2.9c-2.4,0.3-5.4,0.8-6.1,1.1
						c-0.2,0.1-0.5,0-0.6-0.3c-0.1-0.2,0-0.5,0.2-0.6c0.8-0.4,4.4-0.9,6.3-1.2l-2.2-7.9l-2.4,0.5l0.9,3.6c0,0.1,0,0.3-0.1,0.4
						c-0.1,0.1-0.2,0.2-0.3,0.2l-3.7,0.9c-0.3,0.1-0.5-0.1-0.6-0.3l-1.2-4l-2.7,0.8l1.1,3.6c0.1,0.3-0.1,0.5-0.3,0.6l-3,0.9
						c-0.2,0.1-0.5-0.1-0.6-0.3l-1.3-4l-3,1l2,7.7c0.1-0.1,0.1-0.1,0.2-0.2l2.1-0.6c0.3-0.1,0.5,0.1,0.6,0.3
						c0.1,0.3-0.1,0.5-0.3,0.6l-2.1,0.6c0,0-0.1,0-0.1,0c-0.1,0-0.1,0-0.2,0l0.7,2.7c0.1,0,0.1-0.1,0.2-0.1l3.4-0.6
						c0.3,0,0.5,0.1,0.5,0.4c0,0.3-0.1,0.5-0.4,0.5l-3.4,0.6c0,0-0.1,0-0.1,0c0,0-0.1,0-0.1,0l1.1,4.1l2.7-0.6
						c0.3-0.1,0.5,0.1,0.6,0.4C1236.4,129.1,1236.2,129.3,1236,129.4"/>
					<path id="XMLID_770_" class="st3" d="M1256.7,125.6c0.1,0.1,0.1,0.2,0.1,0.3c0,0,0,0.1,0,0.1l0.6,13.3c0,0,0,0.1,0,0.1
						c0,0,0,0,0,0l0.3,6.3c1.4-0.2,2.8-0.4,4.2-0.5l-0.5-7.9c-0.1-1.8,0.3-3.5,1.1-4.8c0.8-1.3,2-2.1,3.3-2.2l0.3,0
						c0.1,0,0.2,0,0.2,0c2.6,0,4.8,2.8,5,6.4l0.1,1.1l0.5,6.7c0.4,0,0.7,0,1.1,0l-0.1-3c0-0.1,0-0.3,0.1-0.4
						c0.1-0.1,0.2-0.1,0.4-0.1l2.3,0.1l-0.1-2.8h-3c-0.1,0-0.3-0.1-0.3-0.1c-0.1-0.1-0.1-0.2-0.1-0.3l0.2-4.7c0-0.3,0.2-0.5,0.5-0.5
						h2.7l-0.1-3.4h-3.4c-0.1,0-0.3-0.1-0.3-0.1c-0.1-0.1-0.1-0.2-0.1-0.3l0.1-5c0-0.3,0.2-0.5,0.5-0.5l3.1-0.1l-0.1-3.6l-3.7,0.2
						c0,0,0,0,0,0c-0.1,0-0.2,0-0.3-0.1c-0.1-0.1-0.1-0.2-0.1-0.3V115c0-0.3,0.2-0.5,0.5-0.5l3.6-0.1l-0.3-7.4h-3.2l0.1,3.4
						c0,0.1,0,0.3-0.1,0.3c-0.1,0.1-0.2,0.1-0.3,0.1h-4.1c-0.3,0-0.5-0.2-0.5-0.5l-0.1-3.5l-2.9,0.1l0.2,3.6c0,0.3-0.2,0.5-0.4,0.5
						l-3.3,0.3c-0.3,0-0.5-0.2-0.5-0.4l-0.3-3.4l-2.6,0.3l0.4,8.6L1256.7,125.6z"/>
					<path id="XMLID_769_" class="st3" d="M1285.6,141.8C1285.6,141.8,1285.6,141.8,1285.6,141.8l-0.2,2.7c1.4,0,2.8,0.1,4.2,0.2
						l0.4-7.8c0.2-3.7,2.5-6.6,5.2-6.5l0.3,0c2.6,0.1,4.6,3.3,4.4,7l-0.1,1.2l-0.4,7.1c0.3,0,0.7,0.1,1,0.1l0.4-3.4
						c0-0.1,0.1-0.3,0.2-0.3c0.1-0.1,0.2-0.1,0.4-0.1l2.3,0.4l0.3-2.8l-3-0.4c-0.1,0-0.2-0.1-0.3-0.2c-0.1-0.1-0.1-0.2-0.1-0.3
						c0,0,0-0.1,0-0.1l0.7-4.7c0-0.3,0.3-0.4,0.5-0.4l2.7,0.3l0.3-3.2c-0.1-0.1-0.1-0.1-0.1-0.2l-3.2-0.4c-0.1,0-0.2-0.1-0.3-0.2
						c-0.1-0.1-0.1-0.2-0.1-0.4l0.7-4.9c0-0.3,0.3-0.4,0.5-0.4l3.2,0.3l0.3-3.6c0,0,0,0,0,0l-3.7-0.3c-0.1,0-0.3-0.1-0.3-0.2
						c-0.1-0.1-0.1-0.2-0.1-0.4l0.5-3.8l-14-1l-2.2,26.3C1285.6,141.6,1285.6,141.7,1285.6,141.8"/>
					<path id="XMLID_738_" class="st4" d="M1340.6,292.1L1340.6,292.1c-0.2,0.5-0.4,0.9-0.5,1.4c-0.2,0.5-0.3,1-0.5,1.4
						c0.7,0.1,1.3,0.3,2,0.4c-0.2-0.6-0.3-1.1-0.5-1.7C1340.9,293.2,1340.8,292.6,1340.6,292.1 M1232.5,290L1232.5,290
						c-0.6,0.1-1.1,0.4-1.5,1c-0.4,0.5-0.6,1.3-0.6,2.2c0,0.9,0.2,1.6,0.6,2c0.4,0.4,0.9,0.6,1.5,0.4c0.6-0.1,1.1-0.4,1.5-1
						c0.2-0.3,0.3-0.6,0.4-1c0.1-0.4,0.1-0.8,0.1-1.3c0-0.9-0.2-1.6-0.6-2C1233.7,290,1233.2,289.9,1232.5,290z M1209.1,260.6
						L1209.1,260.6c1.6-0.6,3.5-1,5.7-1.2c0,0,0.1,0,0.1,0c0.3,0,0.6,0,1-0.1c0,0,0.1,0,0.1,0c0.6,0,1.3,0,1.9,0
						c2.3,0,4.6,0.2,6.9,0.3c2.2,0.2,4.5,0.3,6.7,0.3c6.7,0,10.6-1.7,13.1-5.5c0,0,0,0,0,0c-1.4-1.9-2.6-4-3.7-6.2
						c0-0.1-0.1-0.1-0.1-0.2c-0.3-0.7-0.7-1.4-1-2.1c0,0,0,0,0,0c-9.5-5.6-17.4-7.6-31.5-7.7l4,10.7c0.1,0.2,0.1,0.5,0,0.7
						L1209.1,260.6z M1322.9,290.1L1322.9,290.1c0.1-0.1,0.1-0.4,0.1-0.6c0-0.3-0.1-0.5-0.2-0.7c-0.1-0.2-0.3-0.3-0.6-0.4
						c-0.1,0-0.5-0.1-1.1-0.2c-0.4,0-0.8-0.1-1.2-0.1v2.1c0.4,0,0.7,0.1,1.1,0.1c0.7,0.1,1.2,0.1,1.4,0.1
						C1322.6,290.4,1322.7,290.3,1322.9,290.1z M1291.4,287.8L1291.4,287.8c0.1-0.2,0.1-0.4,0.1-0.6c0-0.3-0.1-0.5-0.2-0.7
						c-0.1-0.2-0.3-0.3-0.6-0.3c-0.1,0-0.5,0-1.1,0c-0.4,0-0.8,0-1.2,0v2.1c0.4,0,0.7,0,1.1,0c0.7,0,1.2,0,1.4-0.1
						C1291.1,288,1291.3,287.9,1291.4,287.8z M1281.3,218.9L1281.3,218.9l2.2,2.6c0.1,0.1,0.1,0.2,0.1,0.3l0.2,25.4h2
						c0.4,0,0.8,0.2,1.1,0.5c0.3,0.3,0.5,0.7,0.5,1.1v0.4c0,0.4-0.2,0.8-0.5,1.1v0c-0.3,0.3-0.7,0.5-1.1,0.5h-1.9
						c0.1,0.2,0.1,0.5,0.1,0.8c0,0.4-0.1,0.8-0.2,1.1l-0.1,0.2c0,0,0.1,0.1,0.1,0.1l0,0c0.1,0.3,0.2,0.7,0.2,1.1
						c0,0.4-0.1,0.8-0.2,1.1c0,0.1-0.1,0.1-0.1,0.2c0,0.1,0.1,0.1,0.1,0.2c0.1,0.3,0.2,0.7,0.2,1.1c0,0.4-0.1,0.8-0.2,1.1l-0.1,0.2
						c0,0.1,0.1,0.1,0.1,0.2c0.1,0.3,0.2,0.7,0.2,1.1c0,0.3,0,0.6-0.1,0.8h0.3c0.4,0,0.8,0.2,1,0.5l0,0c0.2,0.3,0.4,0.7,0.4,1.2
						c0,0.4-0.1,0.9-0.4,1.2c-0.3,0.4-0.6,0.6-1,0.6h-1.4c0.2,0.3,0.4,0.8,0.4,1.2c0,0.6-0.2,1.2-0.6,1.6c-0.4,0.4-0.9,0.6-1.5,0.6
						s-1.1-0.3-1.5-0.6c-0.4-0.4-0.6-0.9-0.6-1.6c0-0.4,0.1-0.9,0.4-1.2h-1.4c-0.4,0-0.8-0.2-1-0.6c-0.2-0.3-0.4-0.7-0.4-1.2
						c0-0.4,0.1-0.9,0.4-1.2c0.3-0.4,0.6-0.6,1-0.6h0.3c-0.1-0.2-0.1-0.5-0.1-0.8c0-0.4,0.1-0.8,0.2-1.1c0-0.1,0.1-0.1,0.1-0.2
						c0-0.1-0.1-0.1-0.1-0.2c-0.1-0.3-0.2-0.7-0.2-1.1c0-0.4,0.1-0.8,0.2-1.1c0-0.1,0.1-0.1,0.1-0.2c0-0.1-0.1-0.1-0.1-0.2
						c-0.1-0.3-0.2-0.7-0.2-1.1c0-0.4,0.1-0.8,0.2-1.1c0-0.1,0.1-0.1,0.1-0.2c0-0.1-0.1-0.1-0.1-0.2c-0.1-0.3-0.2-0.7-0.2-1.1
						c0-0.3,0-0.6,0.1-0.8h-1.9c-0.4,0-0.8-0.2-1.1-0.5l0,0c-0.3-0.3-0.4-0.7-0.4-1.1v-0.4c0-0.4,0.2-0.8,0.5-1.1
						c0.3-0.3,0.7-0.5,1.1-0.5h1.9v-25.3c0-0.1,0.1-0.3,0.1-0.3l2.3-2.6C1280.8,218.7,1281.1,218.7,1281.3,218.9L1281.3,218.9z
						 M1253.7,260.9L1253.7,260.9c3,2.4,6.2,4.4,9.6,5.9c6.2,2.7,12.9,3.8,19.6,3.5c6.7-0.3,13.3-2.2,19.3-5.4
						c2.5-1.4,4.9-3,7.1-4.8l-28.2-49.7L1253.7,260.9z M1240.4,199.2L1240.4,199.2c0-0.4,0.2-0.8,0.5-1.1c0.3-0.3,0.7-0.5,1.1-0.5
						h1.9v-25.3c0-0.1,0.1-0.3,0.1-0.3l2.3-2.6c0.2-0.2,0.5-0.2,0.7,0l0,0l2.2,2.6c0.1,0.1,0.1,0.2,0.1,0.3h0l0.2,25.4h1.9
						c0.4,0,0.8,0.2,1.1,0.5c0.3,0.3,0.5,0.7,0.5,1.1v0.4c0,0.4-0.2,0.8-0.5,1.1c-0.3,0.3-0.7,0.5-1.1,0.5h-1.9
						c0.1,0.2,0.1,0.5,0.1,0.8c0,0.4-0.1,0.8-0.2,1.1l-0.1,0.2c0,0,0.1,0.1,0.1,0.2l0,0c0.1,0.3,0.2,0.7,0.2,1.1
						c0,0.4-0.1,0.8-0.2,1.1c0,0.1-0.1,0.1-0.1,0.2c0,0.1,0.1,0.1,0.1,0.2c0.1,0.3,0.2,0.7,0.2,1.1c0,0.4-0.1,0.8-0.2,1.1l-0.1,0.2
						c0,0.1,0.1,0.1,0.1,0.2c0.1,0.3,0.2,0.7,0.2,1.1c0,0.3,0,0.6-0.1,0.8h0.3c0.4,0,0.8,0.2,1,0.5l0,0c0.2,0.3,0.4,0.7,0.4,1.2
						c0,0.4-0.1,0.9-0.4,1.2c-0.3,0.4-0.6,0.6-1,0.6h-1.4c0.2,0.3,0.4,0.8,0.4,1.2c0,0.6-0.3,1.2-0.6,1.6c-0.4,0.4-0.9,0.6-1.5,0.6
						c-0.6,0-1.1-0.3-1.5-0.6c-0.4-0.4-0.6-0.9-0.6-1.6c0-0.4,0.1-0.9,0.4-1.2h-1.4c-0.4,0-0.8-0.2-1-0.6c-0.2-0.3-0.4-0.7-0.4-1.2
						c0-0.4,0.1-0.9,0.4-1.2c0.3-0.4,0.6-0.6,1-0.6h0.3c-0.1-0.2-0.1-0.5-0.1-0.8c0-0.4,0.1-0.8,0.2-1.1c0-0.1,0.1-0.1,0.1-0.2
						c0-0.1-0.1-0.1-0.1-0.2c-0.1-0.3-0.2-0.7-0.2-1.1c0-0.4,0.1-0.8,0.2-1.1c0-0.1,0.1-0.1,0.1-0.2c0-0.1-0.1-0.1-0.1-0.2
						c-0.1-0.3-0.2-0.7-0.2-1.1c0-0.4,0.1-0.8,0.2-1.1c0-0.1,0.1-0.1,0.1-0.2c0-0.1-0.1-0.1-0.1-0.2c-0.1-0.3-0.2-0.7-0.2-1.1
						c0-0.3,0-0.6,0.1-0.8h-1.9c-0.4,0-0.8-0.2-1.1-0.5l0,0c-0.3-0.3-0.4-0.7-0.4-1.1V199.2z M1310.6,199.2L1310.6,199.2
						c0-0.4,0.2-0.8,0.5-1.1c0.3-0.3,0.7-0.5,1.1-0.5h1.9v-25.3c0-0.1,0.1-0.3,0.1-0.3l2.3-2.6c0.2-0.2,0.5-0.2,0.7,0l0,0l2.2,2.6
						c0.1,0.1,0.1,0.2,0.1,0.3l0.2,25.4h1.9c0.4,0,0.8,0.2,1.1,0.5c0.3,0.3,0.5,0.7,0.5,1.1v0.4c0,0.4-0.2,0.8-0.5,1.1
						c-0.3,0.3-0.7,0.5-1.1,0.5h-1.9c0.1,0.2,0.1,0.5,0.1,0.8c0,0.4-0.1,0.8-0.2,1.1l-0.1,0.2c0,0,0.1,0.1,0.1,0.2l0,0
						c0.1,0.3,0.2,0.7,0.2,1.1c0,0.4-0.1,0.8-0.2,1.1c0,0.1-0.1,0.1-0.1,0.2c0,0.1,0.1,0.1,0.1,0.2c0.1,0.3,0.2,0.7,0.2,1.1
						c0,0.4-0.1,0.8-0.2,1.1l-0.1,0.2c0,0.1,0.1,0.1,0.1,0.2c0.1,0.3,0.2,0.7,0.2,1.1c0,0.3,0,0.6-0.1,0.8h0.3c0.4,0,0.7,0.2,1,0.5
						l0,0c0.2,0.3,0.4,0.7,0.4,1.2c0,0.4-0.1,0.9-0.4,1.2c-0.3,0.4-0.6,0.6-1,0.6h-1.4c0.2,0.3,0.4,0.8,0.4,1.2
						c0,0.6-0.2,1.2-0.6,1.6c-0.4,0.4-0.9,0.6-1.5,0.6c-0.6,0-1.2-0.3-1.5-0.6c-0.4-0.4-0.6-0.9-0.6-1.6c0-0.4,0.1-0.9,0.4-1.2h-1.4
						c-0.4,0-0.8-0.2-1-0.6c-0.2-0.3-0.4-0.7-0.4-1.2c0-0.4,0.1-0.9,0.4-1.2c0.2-0.4,0.6-0.6,1-0.6h0.3c-0.1-0.2-0.1-0.5-0.1-0.8
						c0-0.4,0.1-0.8,0.2-1.1c0-0.1,0.1-0.1,0.1-0.2c0-0.1-0.1-0.1-0.1-0.2c-0.1-0.3-0.2-0.7-0.2-1.1c0-0.4,0.1-0.8,0.2-1.1
						c0-0.1,0.1-0.1,0.1-0.2c0-0.1-0.1-0.1-0.1-0.2c-0.1-0.3-0.2-0.7-0.2-1.1c0-0.4,0.1-0.8,0.2-1.1c0-0.1,0.1-0.1,0.1-0.2
						c0-0.1-0.1-0.1-0.1-0.2c-0.1-0.3-0.2-0.7-0.2-1.1c0-0.3,0-0.6,0.1-0.8h-1.8c-0.4,0-0.8-0.2-1.1-0.5l0,0
						c-0.3-0.3-0.4-0.7-0.4-1.1V199.2z M1240.6,241.5L1240.6,241.5l39.5-73.8c0.3-0.5,1-0.7,1.5-0.5c0.2,0.1,0.3,0.3,0.4,0.4
						l40.5,72.8c1.5-4.5,2.5-9.5,2.7-15v0l3.1-60.7h-91.9v33.3l1.6,32.4C1238.6,234.4,1239.4,238.1,1240.6,241.5z M1342.8,298.9
						L1342.8,298.9c-0.2-0.7-0.4-1.4-0.7-2c-1-0.2-2-0.4-3-0.6c-0.2,0.6-0.4,1.2-0.6,1.7c-0.5-0.1-1.1-0.2-1.6-0.3
						c0.5-1.3,1-2.6,1.4-3.8c0.5-1.3,1-2.5,1.5-3.8c0.5,0.1,1.1,0.2,1.6,0.3c0.5,1.5,1,3,1.5,4.5c0.5,1.5,1,3,1.5,4.5
						C1343.9,299.1,1343.3,299,1342.8,298.9z M1336.1,297.5L1336.1,297.5c-0.5-0.1-0.9-0.2-1.4-0.3v-6.5c-0.3,1-0.5,2.1-0.8,3.1
						c-0.2,1-0.5,2.1-0.7,3.1c-0.5-0.1-1-0.2-1.5-0.3c-0.2-1.1-0.5-2.2-0.7-3.4c-0.2-1.1-0.5-2.2-0.7-3.4v6.5
						c-0.5-0.1-0.9-0.2-1.4-0.2V288c0.8,0.1,1.5,0.3,2.3,0.4c0.2,1,0.4,2,0.7,2.9c0.2,1,0.5,2,0.7,2.9c0.2-0.9,0.4-1.8,0.7-2.7
						c0.2-0.9,0.5-1.8,0.7-2.7c0.7,0.1,1.5,0.3,2.3,0.4V297.5z M1327.5,296L1327.5,296c-0.5-0.1-1-0.2-1.5-0.2v-8.3
						c0.5,0.1,1,0.2,1.5,0.2V296z M1323.4,295.4L1323.4,295.4c-0.4-0.7-0.7-1.3-1.1-1.9c-0.4-0.7-0.7-1.1-0.8-1.3
						c-0.1-0.2-0.3-0.3-0.5-0.4c-0.2-0.1-0.4-0.1-0.8-0.2c-0.1,0-0.2,0-0.3,0v3.4c-0.5-0.1-1-0.1-1.5-0.2v-8.3
						c1.1,0.1,2.1,0.2,3.2,0.4c0.8,0.1,1.4,0.3,1.8,0.5c0.4,0.2,0.7,0.5,0.9,0.9c0.2,0.4,0.3,0.9,0.3,1.3c0,0.6-0.2,1.1-0.5,1.5
						c-0.3,0.4-0.8,0.5-1.5,0.6c0.3,0.3,0.6,0.5,0.8,0.8c0.2,0.3,0.5,0.8,0.9,1.5c0.3,0.6,0.6,1.2,0.9,1.7
						C1324.6,295.6,1324,295.5,1323.4,295.4z M1316.8,290.7L1316.8,290.7c0,1,0,1.7-0.1,2.1c-0.1,0.4-0.2,0.7-0.5,1
						c-0.2,0.3-0.5,0.5-0.9,0.6c-0.4,0.1-0.9,0.2-1.5,0.1c-0.7-0.1-1.3-0.2-1.6-0.4c-0.4-0.2-0.7-0.5-0.9-0.8
						c-0.2-0.3-0.4-0.6-0.4-1c-0.1-0.5-0.1-1.2-0.1-2.1v-4.4c0.5,0,1,0.1,1.5,0.1v4.5c0,0.7,0,1.2,0,1.4c0.1,0.3,0.2,0.6,0.5,0.9
						c0.2,0.2,0.6,0.4,1,0.4c0.4,0,0.8,0,1-0.2c0.2-0.2,0.4-0.4,0.4-0.7c0-0.3,0.1-0.7,0.1-1.4v-4.6c0.5,0.1,1,0.1,1.5,0.2V290.7z
						 M1309.8,293.9L1309.8,293.9c-1.8-0.1-3.5-0.3-5.3-0.4v-8.2c0.5,0,1,0.1,1.5,0.1v6.8c1.3,0.1,2.5,0.2,3.8,0.3V293.9z
						 M1302.9,289L1302.9,289c-0.2,0.3-0.4,0.6-0.6,0.8c-0.3,0.2-0.5,0.3-0.8,0.4c-0.4,0.1-0.9,0.1-1.6,0c-0.3,0-0.7,0-1-0.1v3.1
						c-0.5,0-1,0-1.5-0.1v-8.3c0.8,0,1.6,0.1,2.4,0.1c0.9,0,1.5,0.1,1.8,0.2c0.4,0.1,0.8,0.4,1.1,0.9c0.3,0.4,0.4,1,0.4,1.6
						C1303.2,288.3,1303.1,288.7,1302.9,289z M1291.9,293L1291.9,293c-0.4-0.6-0.7-1.2-1.1-1.8c-0.4-0.6-0.7-1.1-0.8-1.2
						c-0.1-0.2-0.3-0.3-0.5-0.4c-0.2-0.1-0.4-0.1-0.8-0.1h-0.3v3.4c-0.5,0-1,0-1.5,0v-8.3c1.1,0,2.1,0,3.2,0.1
						c0.8,0,1.4,0.1,1.7,0.3c0.4,0.2,0.7,0.4,0.9,0.8c0.2,0.4,0.3,0.8,0.3,1.3c0,0.6-0.2,1.1-0.5,1.5c-0.3,0.4-0.8,0.6-1.5,0.7
						c0.3,0.2,0.6,0.5,0.8,0.7c0.2,0.3,0.5,0.7,0.9,1.4c0.3,0.5,0.6,1.1,0.9,1.6C1293.1,293,1292.5,293,1291.9,293z M1285.6,292.9
						L1285.6,292.9c-1.9,0-3.8,0-5.7,0v-8.3c1.9,0,3.7,0,5.6,0v1.4c-1.4,0-2.7,0-4.1,0v1.8c1.3,0,2.5,0,3.8,0v1.4
						c-1.3,0-2.5,0-3.8,0v2.2c1.4,0,2.8,0,4.2,0V292.9z M1278.9,286L1278.9,286c-0.7,0-1.5,0-2.2,0v6.9c-0.5,0-1,0-1.5,0v-6.9
						c-0.8,0-1.5,0-2.2,0.1v-1.4c2-0.1,4-0.1,6-0.1V286z M1271.9,293.1L1271.9,293.1c-0.5,0-1,0-1.5,0c-0.5-0.9-1-1.8-1.5-2.6
						c-0.5-0.9-1-1.8-1.5-2.6v5.4c-0.5,0-0.9,0-1.4,0.1V285c0.5,0,1,0,1.5-0.1c0.5,0.9,1,1.8,1.5,2.7c0.5,0.9,1,1.8,1.6,2.7v-5.5
						c0.5,0,0.9,0,1.4,0V293.1z M1264.5,293.4L1264.5,293.4c-0.5,0-1,0.1-1.5,0.1v-8.3c0.5,0,1-0.1,1.5-0.1V293.4z M1258.6,293.7
						L1258.6,293.7c-0.5,0-0.9,0.1-1.4,0.1v-6.5c-0.3,1.1-0.5,2.2-0.8,3.3c-0.2,1.1-0.5,2.2-0.7,3.3c-0.5,0-1,0.1-1.5,0.1
						c-0.3-1.1-0.5-2.1-0.8-3.2c-0.2-1.1-0.5-2.1-0.7-3.2v6.5c-0.5,0-0.9,0.1-1.4,0.1v-8.3c0.8-0.1,1.5-0.1,2.3-0.2
						c0.2,0.9,0.5,1.8,0.7,2.8c0.2,0.9,0.5,1.8,0.7,2.8c0.2-1,0.4-1.9,0.7-2.9c0.2-1,0.4-1.9,0.7-2.9c0.8-0.1,1.5-0.1,2.3-0.2V293.7
						z M1249.8,290.6L1249.8,290.6c0,1,0,1.7-0.1,2.1c-0.1,0.4-0.2,0.8-0.5,1.1c-0.2,0.3-0.5,0.6-0.9,0.8c-0.4,0.2-0.9,0.4-1.4,0.4
						c-0.7,0.1-1.3,0.1-1.6-0.1c-0.4-0.1-0.7-0.3-0.9-0.6c-0.2-0.3-0.4-0.5-0.4-0.9c-0.1-0.5-0.1-1.2-0.1-2.1V287
						c0.5-0.1,1-0.1,1.5-0.2v4.5c0,0.7,0,1.2,0.1,1.4c0.1,0.3,0.2,0.6,0.5,0.8c0.3,0.2,0.6,0.2,1,0.2c0.4-0.1,0.8-0.2,1-0.4
						c0.2-0.2,0.4-0.5,0.4-0.8c0-0.3,0.1-0.8,0.1-1.4v-4.6c0.5-0.1,1-0.1,1.5-0.2V290.6z M1242.7,295.4L1242.7,295.4
						c-1.8,0.2-3.5,0.5-5.3,0.8V288c0.5-0.1,1-0.1,1.5-0.2v6.8c1.3-0.2,2.5-0.4,3.8-0.5V295.4z M1235.9,294.1L1235.9,294.1
						c-0.2,0.5-0.4,1-0.7,1.5c-0.7,0.9-1.5,1.4-2.6,1.6c-1.1,0.2-2,0-2.7-0.6c-0.3-0.3-0.6-0.7-0.7-1.2c-0.2-0.5-0.2-1.1-0.2-1.7
						c0-0.8,0.1-1.6,0.3-2.2c0.2-0.4,0.4-0.9,0.7-1.3c0.3-0.4,0.6-0.7,1-0.9c0.5-0.3,1-0.5,1.6-0.6c1.1-0.2,2,0,2.7,0.7
						c0.3,0.3,0.6,0.7,0.7,1.2c0.2,0.5,0.3,1.1,0.3,1.8C1236.2,292.9,1236.1,293.5,1235.9,294.1z M1227.6,296.9L1227.6,296.9
						c-0.2,0.5-0.6,0.8-1,1.1c-0.4,0.3-1,0.5-1.6,0.6c-0.9,0.2-1.7,0.1-2.2-0.2c-0.5-0.4-0.8-1-0.9-1.9c0.5-0.2,1-0.3,1.5-0.5
						c0.1,0.5,0.3,0.9,0.5,1.1c0.3,0.2,0.6,0.2,1.1,0.1c0.5-0.1,0.8-0.3,1.1-0.6c0.3-0.3,0.4-0.6,0.4-0.9c0-0.2-0.1-0.4-0.2-0.5
						c-0.1-0.1-0.3-0.2-0.5-0.2c-0.2,0-0.6-0.1-1.2-0.1c-0.8,0-1.4-0.2-1.7-0.4c-0.5-0.4-0.7-0.9-0.7-1.5c0-0.4,0.1-0.8,0.3-1.3
						c0.2-0.4,0.5-0.8,0.9-1c0.4-0.3,0.9-0.5,1.5-0.6c0.9-0.2,1.7-0.1,2.1,0.2c0.5,0.4,0.7,0.9,0.7,1.7c-0.5,0.1-1,0.3-1.5,0.4
						c-0.1-0.4-0.2-0.7-0.4-0.8c-0.2-0.1-0.5-0.2-1-0.1c-0.4,0.1-0.8,0.3-1,0.5c-0.2,0.2-0.2,0.4-0.2,0.6c0,0.2,0.1,0.3,0.2,0.4
						c0.2,0.1,0.7,0.2,1.4,0.2c0.7,0,1.3,0.1,1.6,0.3c0.4,0.1,0.6,0.4,0.8,0.7c0.2,0.3,0.3,0.7,0.3,1.3
						C1227.9,295.9,1227.8,296.4,1227.6,296.9z M1351,281.3L1351,281.3c-0.2,0.1-0.4,0.2-0.5,0.3c-0.2,0.1-0.5,0.2-0.7,0.3
						c0,0,0,0,0,0c-0.6,0.3-1.3,0.5-1.9,0.8c-0.1,0-0.2,0.1-0.2,0.1c-0.1,0-0.2,0.1-0.4,0.1c0,0-0.1,0-0.1,0
						c-4.1,1.4-8.6,2.1-13.6,2.1c-4.3,0-8.6-0.5-12.2-0.9c-12.8-1.8-25.2-2.7-37.7-2.7c-14,0-28.8,1.1-45.1,3.5
						c-4.4,0.6-8.1,1-11.5,1c-5.5,0-10-1.2-14.8-3.9c1,2.4,1.9,5,2.9,7.7c1.1,3,2.2,6,3.4,8.9c1,2.4,2.6,3.3,5.7,3.3
						c1.8,0,4.1-0.3,7.4-1c0,0,0,0,0.1,0c16.6-2.5,33.5-3.7,50.3-3.7c18.5,0,36.7,1.5,53.9,4.5c1.5,0.2,2.8,0.3,3.9,0.3
						c4.7,0,7.8-1.4,8.6-8.2l0-0.1c0.6-4.6,1.1-8.2,3.2-12.4l0.1-0.3c-0.1,0-0.2,0.1-0.3,0.1C1351.4,281.1,1351.2,281.2,1351,281.3z
						 M1350.6,248.7L1350.6,248.7l4-10.7c-14.2,0.1-22.2,2.1-31.9,7.9c-1.3,2.9-2.9,5.6-4.8,8.1c0,0,0.1,0.1,0.1,0.1
						c0,0,0,0,0.1,0.1c0.1,0.1,0.1,0.1,0.2,0.2c0.5,0.7,1,1.4,1.6,1.9c0.1,0.1,0.2,0.2,0.3,0.3c0.1,0.1,0.2,0.2,0.3,0.3
						c2.5,2.1,5.9,3,11,3c2.2,0,4.4-0.2,6.7-0.3c2.3-0.2,4.6-0.3,6.9-0.3c0.7,0,1.3,0,1.9,0c0,0,0,0,0.1,0c0.3,0,0.7,0,1,0.1
						c0,0,0.1,0,0.1,0c2.2,0.2,4.1,0.6,5.7,1.2l-3.2-11.1C1350.5,249.2,1350.5,249,1350.6,248.7z M1300.8,286.5
						c-0.2,0-0.5-0.1-1.1-0.1c-0.2,0-0.5,0-0.7,0v2.3c0.3,0,0.5,0,0.8,0c0.6,0,1,0,1.2-0.1c0.2-0.1,0.4-0.2,0.5-0.4
						c0.1-0.2,0.2-0.4,0.2-0.6c0-0.3-0.1-0.5-0.2-0.8C1301.2,286.7,1301,286.6,1300.8,286.5z"/>
					<path id="XMLID_737_" class="st5" d="M1251.4,267.6c-0.2-3.7-2.1-6.1-4.4-8.8c-0.5-0.6-1-1.2-1.5-1.9
						c-3.8,4.6-9.5,5.3-14.1,5.3c-2.2,0-4.6-0.2-6.8-0.3c-2.2-0.2-4.5-0.3-6.7-0.3c-1.1,0-2.1,0-3,0.1c0,0,0,0,0,0
						c-0.2,0-0.4,0-0.6,0.1c0,0-0.1,0-0.1,0c-0.2,0-0.3,0-0.5,0.1c-0.1,0-0.1,0-0.2,0c-0.2,0-0.3,0.1-0.5,0.1c-0.1,0-0.1,0-0.2,0
						c-0.2,0-0.3,0.1-0.5,0.1c-0.1,0-0.1,0-0.2,0c-0.2,0-0.3,0.1-0.5,0.1c0,0-0.1,0-0.1,0c-0.1,0-0.3,0.1-0.5,0.1c0,0-0.1,0-0.1,0
						c-0.2,0-0.3,0.1-0.5,0.1c0,0-0.1,0-0.1,0c-0.2,0.1-0.3,0.1-0.5,0.2c0,0,0,0,0,0c-0.2,0.1-0.3,0.1-0.5,0.2l0,0
						c-0.5,0.2-1,0.5-1.4,0.8c-0.1,0.1-0.2,0.1-0.3,0.2c-2.5,1.7-3.3,5.5-2.3,8.1c1.6,3.8,3.5,6.6,9.9,9.3c0,0,1.5-2,3.1-3.3
						c3.1-2.3,6.4-2.7,9.6-2.7c1.5,0,3.1,0.1,4.8,0.2c1.8,0.1,3.6,0.2,5.6,0.2c0.7,0,1.5,0,2.2-0.1c4.7-0.3,7.8-1.3,9.5-3.2
						C1251,271.2,1251.5,269.6,1251.4,267.6"/>
					<path id="XMLID_736_" class="st5" d="M1355.3,263.8c-0.1-0.1-0.2-0.1-0.3-0.2l0,0c-0.6-0.4-1.3-0.7-2-1
						c-0.2-0.1-0.3-0.1-0.5-0.2c0,0,0,0,0,0c-0.2-0.1-0.3-0.1-0.5-0.2c0,0,0,0-0.1,0c-0.2,0-0.3-0.1-0.5-0.1c0,0-0.1,0-0.1,0
						c-0.2,0-0.3-0.1-0.5-0.1c0,0-0.1,0-0.1,0c-0.2,0-0.3-0.1-0.5-0.1c0,0-0.1,0-0.1,0c-0.2,0-0.4-0.1-0.6-0.1l-0.1,0
						c-0.2,0-0.4-0.1-0.6-0.1c0,0,0,0,0,0c-1.1-0.1-2.4-0.2-3.8-0.2c-2.2,0-4.5,0.2-6.7,0.3c-2.3,0.2-4.6,0.3-6.8,0.3
						c-3.7,0-8.2-0.4-11.8-3c-0.5-0.4-1-0.8-1.5-1.3c0,0-0.1,0-0.1-0.1c-0.3-0.3-0.5-0.5-0.7-0.8c-0.5,0.7-1,1.3-1.5,1.9
						c-2.2,2.8-4.2,5.2-4.4,8.8c-0.1,2.1,0.4,3.7,1.5,4.9c1.7,1.9,4.8,2.9,9.5,3.2c0.7,0,1.4,0.1,2.2,0.1c1.9,0,3.8-0.1,5.6-0.2
						c1.7-0.1,3.2-0.2,4.8-0.2c4,0,8.2,0.6,12,5c0.1,0.2,0.2,0.3,0.2,0.3c0,0,0,0,0,0v0l0,0c7.2-1.9,9.7-6.4,10.3-8.6
						C1358.3,269.2,1357.8,265.5,1355.3,263.8"/>
					<path id="XMLID_735_" class="st5" d="M1315,207.7C1315,207.8,1314.9,207.8,1315,207.7l3.9,0.1c0,0-0.1,0,0-0.1
						c0.1-0.2,0.1-0.4,0.1-0.7c0-0.3,0-0.5-0.1-0.7c0,0,0.1-0.1,0-0.1h-4c-0.1,0,0.1,0,0,0.1c-0.1,0.2-0.1,0.4-0.1,0.7
						S1314.9,207.5,1315,207.7"/>
					<path id="XMLID_734_" class="st5" d="M1315,205.2C1315,205.2,1314.9,205.3,1315,205.2l3.9,0.1c0.1,0-0.1,0,0-0.1
						c0.1-0.2,0.1-0.4,0.1-0.7c0-0.3,0-0.5-0.1-0.7l0-0.1h-3.9c0,0,0.1,0,0,0.1c-0.1,0.2-0.1,0.4-0.1,0.7
						C1314.8,204.8,1314.9,205,1315,205.2"/>
					<path id="XMLID_733_" class="st5" d="M1315,202.6C1315,202.7,1314.9,202.7,1315,202.6l3.9,0.1c0,0-0.1,0,0-0.1
						c0.1-0.2,0.1-0.4,0.1-0.7c0-0.3,0-0.5-0.1-0.7c0,0,0.1-0.1,0-0.1h-4c-0.1,0,0.1,0,0,0.1c-0.1,0.2-0.1,0.4-0.1,0.7
						C1314.8,202.2,1314.9,202.5,1315,202.6"/>
					<path id="XMLID_732_" class="st5" d="M1311.7,200c0.1,0.1,0.3,0.2,0.4,0.2h2.7l0.1,0h4l0.1,0h2.7c0.2,0,0.3-0.1,0.4-0.2
						c0.1-0.1,0.2-0.3,0.2-0.4v-0.4c0-0.2-0.1-0.3-0.2-0.4c-0.1-0.1-0.3-0.2-0.4-0.2h-9.5c-0.2,0-0.3,0.1-0.4,0.2
						c-0.1,0.1-0.2,0.3-0.2,0.4v0.4C1311.5,199.8,1311.6,199.9,1311.7,200L1311.7,200z"/>
					<polygon id="XMLID_731_" class="st5" points="1318.6,172.4 1316.9,170.4 1315,172.5 1315,197.6 1318.8,197.6 					"/>
					<path id="XMLID_730_" class="st5" d="M1316.6,213.8c-0.2,0.1-0.4,0.2-0.6,0.3c-0.2,0.2-0.4,0.5-0.4,0.9c0,0.3,0.1,0.7,0.4,0.9
						c0.2,0.2,0.5,0.4,0.9,0.4c0.3,0,0.7-0.1,0.9-0.4c0.2-0.2,0.4-0.5,0.4-0.9c0-0.3-0.1-0.7-0.4-0.9c-0.1-0.1-0.3-0.3-0.6-0.3
						H1316.6z"/>
					<path id="XMLID_729_" class="st5" d="M1315,210.2C1315,210.3,1314.9,210.3,1315,210.2l3.9,0.1c0.1,0-0.1,0,0-0.1
						c0.1-0.2,0.1-0.4,0.1-0.7c0-0.3,0-0.5-0.1-0.7c0,0,0.1-0.1,0-0.1h-4c0,0,0.1,0,0,0.1c-0.1,0.2-0.1,0.4-0.1,0.7
						C1314.8,209.8,1314.9,210.1,1315,210.2"/>
					<path id="XMLID_728_" class="st5" d="M1320.4,212.7c0.1-0.1,0.2-0.4,0.2-0.6s-0.1-0.5-0.2-0.6l0,0c-0.1-0.1-0.2-0.1-0.2-0.1
						h-1.1l-0.1,0h-4l-0.1,0h-1.1c-0.1,0-0.2,0.1-0.2,0.2v0c-0.1,0.1-0.2,0.4-0.2,0.6s0.1,0.5,0.2,0.6v0c0.1,0.1,0.2,0.2,0.2,0.2
						h2.8c0.1,0,0.3,0,0.4,0c0.1,0,0.3,0,0.4,0h2.8C1320.2,212.9,1320.3,212.8,1320.4,212.7"/>
					<path id="XMLID_727_" class="st5" d="M1281,265.9c0.3,0,0.7-0.1,0.9-0.4c0.2-0.2,0.4-0.5,0.4-0.9c0-0.3-0.1-0.7-0.4-0.9v0
						c-0.2-0.1-0.3-0.3-0.6-0.3h-0.6c-0.2,0.1-0.4,0.2-0.6,0.3h0c-0.2,0.2-0.4,0.5-0.4,0.9c0,0.3,0.1,0.7,0.4,0.9
						C1280.3,265.7,1280.6,265.9,1281,265.9"/>
					<path id="XMLID_726_" class="st5" d="M1277.7,260.9c-0.1,0-0.2,0.1-0.2,0.2v0c-0.1,0.1-0.2,0.4-0.2,0.6c0,0.3,0.1,0.5,0.2,0.6
						v0c0.1,0.1,0.2,0.2,0.2,0.2h2.8c0.1,0,0.3,0,0.4,0s0.3,0,0.4,0h2.8c0.1,0,0.2-0.1,0.3-0.2c0.1-0.1,0.2-0.4,0.2-0.6
						c0-0.3-0.1-0.5-0.2-0.6l0,0c-0.1-0.1-0.2-0.1-0.2-0.1h-1.1l-0.1,0h-4l-0.1,0H1277.7z"/>
					<path id="XMLID_725_" class="st5" d="M1279,259.8C1279,259.9,1278.9,259.9,1279,259.8l3.9,0.1c0.1,0-0.1,0,0-0.1
						c0.1-0.2,0.1-0.4,0.1-0.7c0-0.3,0-0.5-0.1-0.7c0,0,0.1-0.1,0-0.1h-4c0,0,0.1,0,0,0.1c-0.1,0.2-0.1,0.4-0.1,0.7
						C1278.9,259.4,1278.9,259.7,1279,259.8"/>
					<path id="XMLID_722_" class="st5" d="M1339.6,294.9L1339.6,294.9c0.2-0.5,0.3-1,0.5-1.4c0.2-0.5,0.3-0.9,0.5-1.4
						c0.2,0.5,0.3,1.1,0.5,1.6c0.2,0.5,0.3,1.1,0.5,1.7C1340.9,295.2,1340.3,295.1,1339.6,294.9 M1341.4,290.3
						c-0.5-0.1-1.1-0.2-1.6-0.3c-0.5,1.3-1,2.6-1.5,3.8c-0.5,1.3-1,2.6-1.4,3.8c0.5,0.1,1.1,0.2,1.6,0.3c0.2-0.6,0.4-1.2,0.6-1.7
						c1,0.2,2,0.4,3,0.6c0.2,0.7,0.4,1.3,0.7,2c0.6,0.1,1.1,0.2,1.7,0.4c-0.5-1.5-1-3-1.5-4.5
						C1342.4,293.3,1341.9,291.8,1341.4,290.3z"/>
					<path id="XMLID_721_" class="st5" d="M1333.2,291.5c-0.2,0.9-0.4,1.8-0.7,2.7c-0.2-1-0.5-2-0.7-2.9c-0.2-1-0.4-2-0.7-2.9
						c-0.8-0.1-1.5-0.3-2.3-0.4v8.3c0.5,0.1,0.9,0.2,1.4,0.2V290c0.2,1.1,0.5,2.3,0.7,3.4c0.2,1.1,0.5,2.2,0.7,3.4
						c0.5,0.1,1,0.2,1.5,0.3c0.2-1,0.5-2.1,0.7-3.1c0.2-1,0.5-2.1,0.8-3.1v6.5c0.5,0.1,0.9,0.2,1.4,0.3v-8.3
						c-0.8-0.1-1.5-0.3-2.3-0.4C1333.6,289.7,1333.4,290.6,1333.2,291.5"/>
					<path id="XMLID_720_" class="st5" d="M1326,295.8c0.5,0.1,1,0.1,1.5,0.2v-8.3c-0.5-0.1-1-0.1-1.5-0.2V295.8z"/>
					<path id="XMLID_717_" class="st5" d="M1321.1,290.3L1321.1,290.3c-0.4,0-0.7-0.1-1.1-0.1v-2.1c0.4,0,0.8,0.1,1.2,0.1
						c0.6,0.1,1,0.1,1.1,0.2c0.2,0.1,0.4,0.2,0.6,0.4c0.1,0.2,0.2,0.4,0.2,0.7c0,0.3,0,0.5-0.1,0.6c-0.1,0.2-0.2,0.3-0.4,0.3
						C1322.2,290.5,1321.8,290.4,1321.1,290.3 M1323.4,292.5c-0.2-0.3-0.5-0.5-0.8-0.8c0.7,0,1.2-0.2,1.5-0.6
						c0.3-0.4,0.5-0.8,0.5-1.5c0-0.5-0.1-0.9-0.3-1.3c-0.2-0.4-0.5-0.7-0.9-0.9c-0.4-0.2-0.9-0.4-1.8-0.5c-1.1-0.1-2.1-0.3-3.2-0.4
						v8.3c0.5,0.1,1,0.1,1.5,0.2v-3.4c0.1,0,0.2,0,0.3,0c0.3,0,0.6,0.1,0.8,0.2c0.2,0.1,0.3,0.2,0.5,0.4c0.1,0.2,0.4,0.6,0.8,1.3
						c0.4,0.7,0.7,1.3,1.1,1.9c0.6,0.1,1.2,0.2,1.8,0.2c-0.3-0.6-0.6-1.2-0.9-1.7C1323.9,293.2,1323.6,292.8,1323.4,292.5z"/>
					<path id="XMLID_716_" class="st5" d="M1242.7,246.5c0,0.1,0.1,0.1,0.1,0.2c0.3,0.6,0.6,1.2,0.9,1.8c0.1,0.2,0.2,0.3,0.3,0.5
						c0.3,0.5,0.6,1,0.9,1.5c0.1,0.1,0.2,0.3,0.3,0.5c0.4,0.6,0.7,1.1,1.1,1.7c1,1.5,2.1,2.8,3.3,4.1c0,0,0,0,0,0.1
						c0.3,0.4,0.7,0.7,1,1.1l0.1,0.1l0.1,0.1l0.2,0.2l0.1,0.1l0.1,0.1l0.1,0.1l0.2,0.2l0.1,0.1l0.1,0.1l0.1,0.1l0.1,0.1l0.2,0.2
						l28-51.8c0.1-0.2,0.2-0.4,0.5-0.5c0.5-0.3,1.2-0.1,1.5,0.4l29,51c1-0.9,1.9-1.9,2.8-2.9c0.1-0.1,0.3-0.3,0.4-0.4
						c0.4-0.4,0.8-0.9,1.1-1.3c0.1-0.1,0.1-0.2,0.2-0.2c0.4-0.5,0.8-1,1.2-1.6c0.1-0.2,0.3-0.4,0.4-0.6c0.3-0.4,0.6-0.8,0.8-1.2
						c0.1-0.2,0.3-0.4,0.4-0.6c0.3-0.5,0.7-1.1,1-1.6c0.1-0.2,0.2-0.4,0.3-0.6c0.2-0.5,0.5-0.9,0.7-1.4c0.1-0.3,0.3-0.5,0.4-0.8
						c0.3-0.6,0.6-1.2,0.8-1.9l-40.4-72.7l-39.4,73.7C1242,245,1242.3,245.8,1242.7,246.5"/>
					<path id="XMLID_715_" class="st5" d="M1315.3,290.8c0,0.6,0,1.1-0.1,1.4c0,0.3-0.2,0.5-0.4,0.7c-0.2,0.2-0.5,0.2-1,0.2
						c-0.4,0-0.8-0.2-1-0.4c-0.2-0.2-0.4-0.5-0.5-0.9c0-0.2,0-0.7,0-1.4v-4.5c-0.5,0-1-0.1-1.5-0.1v4.4c0,0.9,0,1.6,0.1,2.1
						c0.1,0.3,0.2,0.6,0.4,1c0.2,0.3,0.5,0.6,0.9,0.8c0.4,0.2,0.9,0.4,1.6,0.4c0.6,0.1,1.1,0,1.5-0.1c0.4-0.1,0.7-0.3,0.9-0.6
						c0.2-0.3,0.4-0.6,0.5-1c0.1-0.4,0.1-1.1,0.1-2.1v-4.3c-0.5-0.1-1-0.1-1.5-0.2V290.8z"/>
					<path id="XMLID_714_" class="st5" d="M1306,285.4c-0.5,0-1-0.1-1.5-0.1v8.2c1.8,0.1,3.5,0.3,5.3,0.4v-1.4
						c-1.3-0.1-2.5-0.2-3.8-0.3V285.4z"/>
					<path id="XMLID_711_" class="st5" d="M1301.4,288.3L1301.4,288.3c-0.1,0.2-0.3,0.3-0.5,0.4c-0.2,0.1-0.6,0.1-1.2,0.1
						c-0.3,0-0.6,0-0.8,0v-2.3c0.2,0,0.5,0,0.7,0c0.6,0,0.9,0.1,1.1,0.1c0.3,0.1,0.5,0.2,0.6,0.4c0.2,0.2,0.2,0.5,0.2,0.8
						C1301.6,287.9,1301.6,288.1,1301.4,288.3 M1301.7,285.2c-0.3-0.1-0.9-0.2-1.8-0.2c-0.8,0-1.6-0.1-2.4-0.1v8.3
						c0.5,0,1,0,1.5,0.1v-3.1c0.3,0,0.7,0,1,0.1c0.7,0,1.2,0,1.6,0c0.3,0,0.5-0.2,0.8-0.4c0.3-0.2,0.5-0.4,0.6-0.8
						c0.2-0.3,0.3-0.8,0.3-1.3c0-0.7-0.1-1.2-0.4-1.6C1302.5,285.7,1302.1,285.4,1301.7,285.2z"/>
					<path id="XMLID_708_" class="st5" d="M1289.6,288.2L1289.6,288.2c-0.4,0-0.8,0-1.1,0v-2.1c0.4,0,0.8,0,1.2,0c0.6,0,1,0,1.1,0
						c0.2,0,0.4,0.2,0.6,0.3c0.1,0.2,0.2,0.4,0.2,0.7c0,0.3,0,0.5-0.1,0.6c-0.1,0.2-0.3,0.3-0.4,0.3
						C1290.8,288.2,1290.3,288.2,1289.6,288.2 M1291.9,290c-0.2-0.3-0.5-0.5-0.8-0.7c0.7-0.1,1.2-0.3,1.5-0.7
						c0.3-0.4,0.5-0.9,0.5-1.5c0-0.5-0.1-0.9-0.3-1.3c-0.2-0.4-0.5-0.7-0.9-0.8c-0.4-0.2-0.9-0.3-1.7-0.3c-1.1,0-2.1,0-3.2-0.1v8.3
						c0.5,0,1,0,1.5,0v-3.4c0.1,0,0.2,0,0.3,0c0.3,0,0.6,0,0.8,0.1c0.2,0.1,0.3,0.2,0.5,0.4c0.1,0.2,0.4,0.6,0.8,1.2
						c0.4,0.6,0.7,1.2,1.1,1.8c0.6,0,1.2,0,1.8,0c-0.3-0.5-0.6-1.1-0.9-1.6C1292.4,290.8,1292.1,290.3,1291.9,290z"/>
					<path id="XMLID_707_" class="st5" d="M1285.7,248.2h-9.5c-0.2,0-0.3,0.1-0.4,0.2c-0.1,0.1-0.2,0.3-0.2,0.4v0.4
						c0,0.2,0.1,0.3,0.2,0.4l0,0c0.1,0.1,0.3,0.2,0.4,0.2h2.7h0.1h4h0.1h2.7c0.2,0,0.3-0.1,0.4-0.2h0c0.1-0.1,0.2-0.3,0.2-0.4v-0.4
						c0-0.2-0.1-0.3-0.2-0.4C1286,248.2,1285.9,248.2,1285.7,248.2"/>
					<path id="XMLID_706_" class="st5" d="M1281.4,289.2c1.3,0,2.5,0,3.8,0v-1.4c-1.3,0-2.5,0-3.8,0V286c1.3,0,2.7,0,4.1,0v-1.4
						c-1.9,0-3.7,0-5.6,0v8.3c1.9,0,3.8,0,5.7,0v-1.4c-1.4,0-2.8,0-4.2,0V289.2z"/>
					<path id="XMLID_705_" class="st5" d="M1279,252.2C1279,252.3,1278.9,252.3,1279,252.2l3.9,0.1c0,0-0.1,0,0-0.1
						c0.1-0.2,0.1-0.4,0.1-0.7c0-0.3,0-0.5-0.1-0.7c0,0,0.1-0.1,0-0.1h-4c-0.1,0,0.1,0,0,0.1c-0.1,0.2-0.1,0.4-0.1,0.7
						C1278.9,251.8,1278.9,252.1,1279,252.2"/>
					<path id="XMLID_704_" class="st5" d="M1279,254.8C1279,254.8,1278.9,254.8,1279,254.8l3.9,0.1c0.1,0-0.1,0,0-0.1
						c0.1-0.2,0.1-0.4,0.1-0.7c0-0.3,0-0.5-0.1-0.7l0-0.1h-3.9c0,0,0.1,0,0,0.1c-0.1,0.2-0.1,0.4-0.1,0.7
						C1278.9,254.3,1278.9,254.6,1279,254.8"/>
					<path id="XMLID_703_" class="st5" d="M1279,257.3C1279,257.3,1278.9,257.4,1279,257.3l3.9,0.1c0,0-0.1,0,0-0.1
						c0.1-0.2,0.1-0.4,0.1-0.7c0-0.3,0-0.5-0.1-0.7c0,0,0.1-0.1,0-0.1h-4c-0.1,0,0.1,0,0,0.1c-0.1,0.2-0.1,0.4-0.1,0.7
						C1278.9,256.9,1278.9,257.1,1279,257.3"/>
					<polygon id="XMLID_702_" class="st5" points="1279.1,222.1 1279.1,247.2 1282.8,247.2 1282.7,222 1281,219.9 					"/>
					<path id="XMLID_701_" class="st5" d="M1273,286.2c0.7,0,1.5,0,2.2-0.1v6.9c0.5,0,1,0,1.5,0v-6.9c0.7,0,1.5,0,2.2,0v-1.4
						c-2,0-4,0.1-6,0.1V286.2z"/>
					<path id="XMLID_700_" class="st5" d="M1270.5,290.3c-0.5-0.9-1-1.8-1.6-2.7c-0.5-0.9-1-1.8-1.5-2.7c-0.5,0-1,0.1-1.5,0.1v8.3
						c0.5,0,0.9,0,1.4-0.1v-5.4c0.5,0.9,1,1.8,1.5,2.6c0.5,0.9,1,1.8,1.5,2.6c0.5,0,1,0,1.5,0v-8.3c-0.5,0-0.9,0-1.4,0V290.3z"/>
					<path id="XMLID_699_" class="st5" d="M1263,293.4c0.5,0,1-0.1,1.5-0.1v-8.3c-0.5,0-1,0.1-1.5,0.1V293.4z"/>
					<path id="XMLID_698_" class="st5" d="M1255.6,288.5c-0.2,1-0.4,1.9-0.7,2.9c-0.2-0.9-0.5-1.8-0.7-2.8c-0.2-0.9-0.5-1.8-0.7-2.8
						c-0.8,0.1-1.5,0.1-2.3,0.2v8.3c0.5,0,0.9-0.1,1.4-0.1v-6.5c0.2,1.1,0.5,2.1,0.7,3.2c0.2,1.1,0.5,2.1,0.8,3.2
						c0.5,0,1-0.1,1.5-0.1c0.2-1.1,0.5-2.2,0.7-3.3c0.2-1.1,0.5-2.2,0.8-3.3v6.5c0.5,0,0.9-0.1,1.4-0.1v-8.3
						c-0.8,0.1-1.5,0.1-2.3,0.2C1256.1,286.6,1255.9,287.6,1255.6,288.5"/>
					<path id="XMLID_697_" class="st5" d="M1241.6,200c0.1,0.1,0.3,0.2,0.4,0.2h2.7l0.1,0h4l0.1,0h2.7c0.2,0,0.3-0.1,0.4-0.2h0
						c0.1-0.1,0.2-0.3,0.2-0.4v-0.4c0-0.2-0.1-0.3-0.2-0.4c-0.1-0.1-0.3-0.2-0.4-0.2h-9.5c-0.2,0-0.3,0.1-0.4,0.2
						c-0.1,0.1-0.2,0.3-0.2,0.4v0.4C1241.4,199.8,1241.5,199.9,1241.6,200L1241.6,200z"/>
					<path id="XMLID_696_" class="st5" d="M1243.6,211.3c-0.1,0-0.2,0.1-0.2,0.2v0c-0.1,0.1-0.2,0.4-0.2,0.6s0.1,0.5,0.2,0.6v0
						c0.1,0.1,0.2,0.2,0.2,0.2h2.8c0.1,0,0.3,0,0.4,0c0.1,0,0.3,0,0.4,0h2.8c0.1,0,0.2-0.1,0.3-0.2c0.1-0.1,0.2-0.4,0.2-0.6
						s-0.1-0.5-0.2-0.6l0,0c-0.1-0.1-0.1-0.1-0.2-0.1h-1.1l-0.1,0h-4l-0.1,0H1243.6z"/>
					<path id="XMLID_695_" class="st5" d="M1248.2,291c0,0.7,0,1.1-0.1,1.4c0,0.3-0.2,0.5-0.4,0.8c-0.2,0.2-0.5,0.4-1,0.4
						c-0.4,0-0.7,0-1-0.2c-0.2-0.2-0.4-0.4-0.5-0.8c0-0.2-0.1-0.7-0.1-1.4v-4.5c-0.5,0.1-1,0.1-1.5,0.2v4.4c0,0.9,0,1.6,0.1,2.1
						c0.1,0.3,0.2,0.6,0.4,0.9c0.2,0.3,0.5,0.5,0.9,0.6c0.4,0.1,0.9,0.2,1.6,0.1c0.6-0.1,1.1-0.2,1.4-0.4c0.4-0.2,0.7-0.5,0.9-0.8
						c0.2-0.3,0.4-0.7,0.5-1.1c0.1-0.4,0.1-1.1,0.1-2.1v-4.3c-0.5,0.1-1,0.1-1.5,0.2V291z"/>
					<path id="XMLID_694_" class="st5" d="M1244.8,202.6C1244.8,202.7,1244.7,202.7,1244.8,202.6l3.9,0.1c0,0-0.1,0,0-0.1
						c0.1-0.2,0.1-0.4,0.1-0.7c0-0.3,0-0.5-0.1-0.7c0,0,0.1-0.1,0-0.1h-4c-0.1,0,0.1,0,0,0.1c-0.1,0.2-0.1,0.4-0.1,0.7
						C1244.7,202.2,1244.8,202.5,1244.8,202.6"/>
					<path id="XMLID_693_" class="st5" d="M1244.8,205.2C1244.8,205.2,1244.7,205.3,1244.8,205.2l3.9,0.1c0.1,0-0.1,0,0-0.1
						c0.1-0.2,0.1-0.4,0.1-0.7c0-0.3,0-0.5-0.1-0.7l0-0.1h-3.9c0,0,0.1,0,0,0.1c-0.1,0.2-0.1,0.4-0.1,0.7
						C1244.7,204.8,1244.8,205,1244.8,205.2"/>
					<path id="XMLID_692_" class="st5" d="M1244.8,207.7C1244.8,207.8,1244.7,207.8,1244.8,207.7l3.9,0.1c0,0-0.1,0,0-0.1
						c0.1-0.2,0.1-0.4,0.1-0.7c0-0.3,0-0.5-0.1-0.7c0,0,0.1-0.1,0-0.1h-4c-0.1,0,0.1,0,0,0.1c-0.1,0.2-0.1,0.4-0.1,0.7
						S1244.8,207.5,1244.8,207.7"/>
					<path id="XMLID_691_" class="st5" d="M1244.8,210.2C1244.8,210.3,1244.7,210.3,1244.8,210.2l3.9,0.1c0.1,0-0.1,0,0-0.1
						c0.1-0.2,0.1-0.4,0.1-0.7c0-0.3,0-0.5-0.1-0.7c0,0,0.1-0.1,0-0.1h-4c0,0,0.1,0,0,0.1c-0.1,0.2-0.1,0.4-0.1,0.7
						C1244.7,209.8,1244.8,210.1,1244.8,210.2"/>
					<polygon id="XMLID_690_" class="st5" points="1248.5,172.4 1246.8,170.4 1244.9,172.5 1244.9,197.6 1248.6,197.6 					"/>
					<path id="XMLID_689_" class="st5" d="M1246.5,213.8c-0.2,0.1-0.4,0.2-0.6,0.3c-0.2,0.2-0.4,0.5-0.4,0.9c0,0.3,0.1,0.7,0.4,0.9
						c0.2,0.2,0.5,0.4,0.9,0.4c0.3,0,0.7-0.1,0.9-0.4c0.2-0.2,0.4-0.5,0.4-0.9c0-0.3-0.1-0.7-0.4-0.9c-0.2-0.1-0.3-0.3-0.6-0.3
						H1246.5z"/>
					<path id="XMLID_688_" class="st5" d="M1238.9,287.7c-0.5,0.1-1,0.2-1.5,0.2v8.2c1.8-0.3,3.5-0.5,5.3-0.8V294
						c-1.3,0.2-2.5,0.4-3.8,0.5V287.7z"/>
					<path id="XMLID_685_" class="st5" d="M1234.5,293.7L1234.5,293.7c-0.1,0.4-0.2,0.7-0.4,1c-0.4,0.6-0.9,0.9-1.5,1
						c-0.6,0.1-1.1,0-1.5-0.4c-0.4-0.4-0.6-1.1-0.6-2c0-1,0.2-1.7,0.6-2.2c0.4-0.5,0.9-0.9,1.5-1c0.6-0.1,1.1,0,1.5,0.4
						c0.4,0.4,0.6,1.1,0.6,2C1234.6,292.9,1234.6,293.4,1234.5,293.7 M1235.2,289.3c-0.7-0.6-1.6-0.9-2.7-0.7
						c-0.6,0.1-1.1,0.3-1.6,0.6c-0.4,0.2-0.7,0.5-1,0.9c-0.3,0.4-0.5,0.8-0.7,1.3c-0.2,0.6-0.3,1.3-0.3,2.2c0,0.7,0.1,1.2,0.2,1.7
						c0.2,0.5,0.4,0.9,0.7,1.2c0.7,0.6,1.5,0.8,2.7,0.6c1.1-0.2,2-0.7,2.6-1.6c0.3-0.4,0.6-0.9,0.7-1.5c0.2-0.6,0.2-1.2,0.2-1.8
						c0-0.7-0.1-1.3-0.3-1.8C1235.8,290,1235.5,289.6,1235.2,289.3z"/>
					<path id="XMLID_684_" class="st5" d="M1226.8,293.5c-0.4-0.1-0.9-0.2-1.6-0.3c-0.7,0-1.2-0.1-1.4-0.2c-0.2-0.1-0.2-0.3-0.2-0.4
						c0-0.2,0.1-0.4,0.2-0.6c0.3-0.3,0.6-0.4,1-0.5c0.4-0.1,0.7-0.1,1,0.1c0.2,0.1,0.4,0.4,0.4,0.8c0.5-0.1,1-0.3,1.5-0.4
						c0-0.8-0.3-1.3-0.7-1.7c-0.5-0.4-1.2-0.4-2.1-0.2c-0.6,0.1-1.1,0.3-1.5,0.6c-0.4,0.3-0.7,0.6-0.9,1c-0.2,0.4-0.3,0.8-0.3,1.3
						c0,0.7,0.2,1.2,0.7,1.5c0.3,0.2,0.9,0.4,1.7,0.4c0.6,0,1,0.1,1.2,0.1c0.3,0,0.4,0.1,0.5,0.2c0.1,0.1,0.2,0.3,0.2,0.5
						c0,0.3-0.1,0.6-0.4,0.9c-0.2,0.3-0.6,0.5-1.1,0.6c-0.5,0.1-0.8,0.1-1.1-0.1c-0.3-0.2-0.4-0.6-0.5-1.1c-0.5,0.2-1,0.3-1.5,0.5
						c0.1,0.9,0.4,1.5,0.9,1.9c0.5,0.4,1.2,0.4,2.2,0.2c0.7-0.1,1.2-0.4,1.6-0.6c0.4-0.3,0.8-0.7,1-1.1c0.2-0.5,0.4-0.9,0.4-1.4
						c0-0.5-0.1-0.9-0.3-1.3C1227.4,293.9,1227.1,293.7,1226.8,293.5"/>
					<path id="XMLID_271_" class="st6" d="M1357.6,271.9L1357.6,271.9c-0.6,2.1-3.1,6.7-10.3,8.6l0,0h0c0,0,0,0,0,0
						c0,0-0.1-0.1-0.2-0.3c-3.8-4.4-8-5-12-5c-1.5,0-3.1,0.1-4.8,0.2c-1.8,0.1-3.6,0.2-5.6,0.2c-0.8,0-1.5,0-2.2-0.1
						c-4.7-0.3-7.8-1.3-9.5-3.2c-1.1-1.2-1.6-2.8-1.5-4.9c0.2-3.7,2.1-6.1,4.4-8.8c0.5-0.6,1-1.2,1.5-1.9c0.2,0.3,0.5,0.6,0.7,0.8
						c0,0,0,0,0.1,0.1c0.5,0.5,1,0.9,1.5,1.3c3.6,2.6,8,3,11.8,3c2.2,0,4.6-0.2,6.8-0.3c2.2-0.2,4.5-0.3,6.7-0.3
						c1.4,0,2.6,0.1,3.8,0.2c0,0,0,0,0,0c0.2,0,0.4,0.1,0.6,0.1l0.1,0c0.2,0,0.4,0.1,0.6,0.1c0,0,0.1,0,0.1,0c0.2,0,0.3,0.1,0.5,0.1
						c0,0,0.1,0,0.1,0c0.2,0,0.3,0.1,0.5,0.1c0,0,0.1,0,0.1,0c0.2,0,0.3,0.1,0.5,0.1c0,0,0,0,0.1,0c0.2,0,0.3,0.1,0.5,0.2
						c0,0,0,0,0,0c0.2,0.1,0.3,0.1,0.5,0.2c0.7,0.3,1.4,0.6,2,1l0,0c0.1,0.1,0.2,0.1,0.3,0.2
						C1357.8,265.5,1358.3,269.2,1357.6,271.9 M1351.7,281.2L1351.7,281.2c-2.1,4.2-2.6,7.8-3.2,12.4l0,0.1
						c-0.8,6.8-3.9,8.2-8.6,8.2c-1.1,0-2.4-0.1-3.9-0.3c-17.3-3-35.4-4.5-53.9-4.5c-16.8,0-33.8,1.2-50.3,3.7c0,0,0,0-0.1,0
						c-3.3,0.7-5.6,1-7.4,1c-3.1,0-4.7-0.9-5.7-3.3c-1.2-2.9-2.3-6-3.4-8.9c-1-2.7-1.9-5.3-2.9-7.7c4.8,2.8,9.3,3.9,14.8,3.9
						c3.5,0,7.1-0.4,11.5-1c16.3-2.4,31.1-3.5,45.1-3.5c12.5,0,24.9,0.9,37.7,2.7c3.6,0.5,8,0.9,12.2,0.9c5,0,9.4-0.7,13.6-2.1
						c0,0,0.1,0,0.1,0c0.1,0,0.2-0.1,0.4-0.1c0.1,0,0.2-0.1,0.2-0.1c0.6-0.2,1.3-0.5,1.9-0.8c0,0,0,0,0,0c0.2-0.1,0.5-0.2,0.7-0.3
						c0.2-0.1,0.4-0.2,0.5-0.3c0.2-0.1,0.4-0.2,0.6-0.3c0.1,0,0.2-0.1,0.3-0.1L1351.7,281.2z M1205.4,272L1205.4,272
						c-1.1-2.6-0.2-6.5,2.3-8.1c0.1-0.1,0.2-0.1,0.3-0.2c0.5-0.3,0.9-0.5,1.4-0.8l0,0c0.2-0.1,0.3-0.1,0.5-0.2c0,0,0,0,0,0
						c0.2-0.1,0.3-0.1,0.5-0.2c0,0,0.1,0,0.1,0c0.2,0,0.3-0.1,0.5-0.1c0,0,0.1,0,0.1,0c0.1,0,0.3-0.1,0.5-0.1c0.1,0,0.1,0,0.1,0
						c0.1,0,0.3-0.1,0.5-0.1c0.1,0,0.1,0,0.2,0c0.1,0,0.3-0.1,0.5-0.1c0.1,0,0.1,0,0.2,0c0.2,0,0.3-0.1,0.5-0.1c0.1,0,0.1,0,0.2,0
						c0.2,0,0.3,0,0.5-0.1c0,0,0.1,0,0.1,0c0.2,0,0.4,0,0.6-0.1c0,0,0,0,0,0c0.9-0.1,2-0.1,3-0.1c2.2,0,4.5,0.2,6.7,0.3
						c2.3,0.2,4.6,0.3,6.8,0.3c4.6,0,10.3-0.6,14.1-5.3c0.5,0.7,1,1.3,1.5,1.9c2.3,2.8,4.2,5.2,4.4,8.8c0.1,2.1-0.4,3.7-1.5,4.9
						c-1.7,1.9-4.8,2.9-9.5,3.2c-0.7,0-1.4,0.1-2.2,0.1c-1.9,0-3.8-0.1-5.6-0.2c-1.7-0.1-3.2-0.2-4.8-0.2c-3.2,0-6.4,0.4-9.6,2.7
						c-1.6,1.2-3.1,3.3-3.1,3.3C1208.8,278.5,1206.9,275.8,1205.4,272z M1212.4,249.5L1212.4,249.5c0.1-0.2,0.1-0.5,0-0.7l-4-10.7
						c14.1,0.1,22,2.1,31.5,7.7c0,0,0,0,0,0c0.3,0.7,0.6,1.4,1,2.1c0,0.1,0.1,0.1,0.1,0.2c1.1,2.2,2.3,4.3,3.7,6.2c0,0,0,0,0,0
						c-2.5,3.9-6.5,5.5-13.1,5.5c-2.2,0-4.4-0.2-6.7-0.3c-2.3-0.2-4.6-0.3-6.9-0.3c-0.7,0-1.3,0-1.9,0c0,0-0.1,0-0.1,0
						c-0.3,0-0.6,0-1,0.1c0,0-0.1,0-0.1,0c-2.2,0.2-4.1,0.6-5.7,1.2L1212.4,249.5z M1238,230.4L1238,230.4l-1.6-32.4v-33.3h91.9
						l-3.1,60.7v0c-0.2,5.5-1.2,10.5-2.7,15l-40.5-72.8c-0.1-0.2-0.3-0.3-0.4-0.4c-0.5-0.3-1.2-0.1-1.5,0.5l-39.5,73.8
						C1239.4,238.1,1238.6,234.4,1238,230.4z M1240.9,159.6L1240.9,159.6c0.1,0,0.1,0,0.2,0c10.5-2.5,20.3-4,29.9-4.7
						c0.1,0,0.1,0,0.2,0h0c0.1,0,0.2,0,0.2-0.1c17-1.1,33.2,0.5,50.8,5l3.5,1.6l-0.5,1.1h-0.4c-14.2-4.2-28.3-6.3-43.1-6.3
						c-14,0-28.3,1.9-43.7,5.7l-0.5-0.9L1240.9,159.6z M1246,157.5L1246,157.5c-1.6,0.3-3.3,0.7-4.9,1.1l-0.7-2.3
						c1.6-0.4,3.2-0.8,4.8-1.2L1246,157.5z M1240.1,155.4L1240.1,155.4l-0.6-2.1c3.1-1,6.4-1.9,9.9-2.6c0,0,0,0.1,0,0.1l0.4,2.2
						C1246.6,153.8,1243.4,154.6,1240.1,155.4z M1238.6,152.7L1238.6,152.7l-4.5,1.1l-0.4-1.4l4.1-1.3c0.1,0,0.1,0,0.2,0
						c21.9-6.9,47-7.5,76.4-2c0.1,0.1,0.1,0.1,0.2,0.1c0,0,0.1,0,0.1,0c0.1,0,0.1,0,0.2,0c3,0.6,6.1,1.2,9.3,1.9
						c0.1,0.1,0.1,0.2,0.2,0.2l4.5,1.7l-0.6,1.5l-4.5-1.5c-0.1,0-0.2,0-0.2,0c-30-7.8-61.8-7.9-85-0.4
						C1238.7,152.6,1238.6,152.7,1238.6,152.7z M1235.5,138.4L1235.5,138.4c1.2-1.6,2.3-1.3,3.1-0.3c1.7,2.2,2.4,7.7,3.3,10.8
						c-1.2,0.3-2.3,0.7-3.5,1L1235.5,138.4z M1233.3,130L1233.3,130l2.7-0.6c0.3-0.1,0.4-0.3,0.4-0.6c-0.1-0.3-0.3-0.4-0.6-0.4
						l-2.7,0.6l-1.1-4.1c0,0,0,0,0.1,0c0,0,0.1,0,0.1,0l3.4-0.6c0.3,0,0.4-0.3,0.4-0.5c0-0.3-0.3-0.4-0.5-0.4l-3.4,0.6
						c-0.1,0-0.1,0.1-0.2,0.1l-0.7-2.7c0.1,0,0.1,0,0.2,0c0,0,0.1,0,0.1,0l2.1-0.6c0.3-0.1,0.4-0.3,0.3-0.6
						c-0.1-0.3-0.3-0.4-0.6-0.3l-2.1,0.6c-0.1,0-0.2,0.1-0.2,0.2l-2-7.7l3-1l1.3,4c0.1,0.2,0.3,0.4,0.6,0.3l3-0.9
						c0.3-0.1,0.4-0.3,0.3-0.6l-1.1-3.6l2.7-0.8l1.2,4c0.1,0.2,0.3,0.4,0.6,0.3l3.7-0.9c0.1,0,0.2-0.1,0.3-0.2
						c0.1-0.1,0.1-0.2,0.1-0.4l-0.9-3.6l2.4-0.5l2.2,7.9c-1.9,0.3-5.5,0.8-6.3,1.2c-0.2,0.1-0.4,0.4-0.2,0.6
						c0.1,0.2,0.4,0.4,0.6,0.3c0.6-0.3,3.6-0.8,6.1-1.1l0.6,2.9c-3.3,0.5-5.3,0.8-6.4,1.1c0,0-0.1,0-0.2,0c0,0,0,0-0.1,0
						c-1.2,0.3-1.3,0.4-1.4,0.5c-0.2,0.2-0.1,0.5,0.1,0.7c0.2,0.1,0.4,0.1,0.6,0c0.1-0.1,0.3-0.1,0.6-0.2l1.2,3.9
						c-0.9,0.2-1.5,0.3-1.6,0.3c-0.3,0.1-0.4,0.3-0.4,0.6c0.1,0.3,0.3,0.4,0.6,0.4c0.1,0,4.4-0.9,8.4-1.5l0.9,3.7
						c-3.9,0.7-7.9,1.8-8.1,1.9c-0.3,0.1-0.4,0.3-0.3,0.6c0.1,0.3,0.3,0.4,0.6,0.3c0,0,0.4-0.1,1.1-0.3l1,3
						c-0.8,0.2-1.3,0.3-1.4,0.3c-0.3,0.1-0.4,0.3-0.4,0.6c0.1,0.3,0.3,0.4,0.6,0.4c0.1,0,4.2-1,8.2-1.4l0.9,3.5
						c-3.7,0.6-8.3,1.7-8.6,1.8c-0.3,0.1-0.4,0.3-0.3,0.6c0.1,0.3,0.3,0.4,0.6,0.3c0,0,0.7-0.2,1.8-0.4l0.6,2.8
						c-1.4,0.2-2.4,0.3-2.5,0.4c-0.3,0-0.4,0.3-0.4,0.5c0,0.2,0.2,0.4,0.5,0.4c0,0,0,0,0.1,0c0.1,0,9.5-1.4,11.6-1.6l0.1,1.9
						c-4.5,0.7-9,1.6-13.3,2.7c-1.2-4-2.4-7.9-3.8-11.8c-0.8-2.2-2.4-3.7-5.3-3L1233.3,130z M1249.3,121.9L1249.3,121.9
						c0,0,0.1,0,0.1,0c0,0,0.1,0,0.1,0c0.6-0.1,1.1-0.2,1.7-0.2l1,3.9c-0.5,0.1-1.1,0.1-1.6,0.2c0,0,0,0-0.1,0
						c-2.2,0.3-4.5,0.8-6.2,1.1l-1.2-3.9C1244.4,122.6,1246.7,122.3,1249.3,121.9z M1249.3,118L1249.3,118c0.1,0,0.2-0.1,0.3-0.2
						l5.8-0.8l0.1,3.1c-2.3,0.3-4.2,0.6-5.8,0.8l-0.6-2.9C1249.2,118,1249.3,118,1249.3,118z M1255.8,125.3L1255.8,125.3
						c-0.7,0-1.6,0-2.7,0.1l-1-3.9c1.1-0.2,2.3-0.3,3.4-0.5L1255.8,125.3z M1256,129.9L1256,129.9c-1.1,0-2.5,0.1-3.9,0.3l-0.9-3.7
						c1.9-0.3,3.6-0.4,4.7-0.4L1256,129.9z M1256.4,139.8L1256.4,139.8l0.1,3.2c-1.3,0.1-5.3,0.7-8.3,1.1l-0.7-2.9
						C1250.3,140.6,1254.3,139.8,1256.4,139.8z M1256.2,135.4L1256.2,135.4l0.1,3.5c-0.6,0-1.4,0.1-2.2,0.2l-0.9-3.5
						C1254.3,135.4,1255.3,135.4,1256.2,135.4z M1254,130.9L1254,130.9c0.7-0.1,1.4-0.1,2-0.1l0.2,3.6c-0.4,0-0.8,0-1.2,0
						L1254,130.9z M1254,134.5L1254,134.5c-2.7,0.2-5.7,0.7-7.7,1.1l-1-3c2-0.5,5.1-1.2,7.8-1.6c0,0,0,0,0,0.1L1254,134.5z
						 M1269.7,144.6L1269.7,144.6c-1.3,0.1-2.7,0.1-4.1,0.3l-0.2-6.1c-0.1-2.1,0.5-3.6,1.2-3.7l1.4-0.2c0.6-0.1,1.4,1.3,1.4,3.4
						L1269.7,144.6z M1258.6,107.5L1258.6,107.5l0.3,3.4c0,0.3,0.2,0.4,0.5,0.4l3.3-0.3c0.3,0,0.4-0.2,0.4-0.5l-0.2-3.6l2.9-0.1
						l0.1,3.5c0,0.3,0.2,0.5,0.5,0.5h4.1c0.1,0,0.3-0.1,0.3-0.1c0.1-0.1,0.1-0.2,0.1-0.3l-0.1-3.4h3.2l0.3,7.4l-3.6,0.1
						c-0.3,0-0.5,0.2-0.5,0.5v4.1c0,0.1,0.1,0.3,0.1,0.3c0.1,0.1,0.2,0.1,0.3,0.1c0,0,0,0,0,0l3.7-0.2l0.1,3.6l-3.1,0.1
						c-0.3,0-0.5,0.2-0.5,0.5l-0.1,5c0,0.1,0,0.2,0.1,0.3c0.1,0.1,0.2,0.1,0.3,0.1h3.4l0.1,3.4h-2.7c-0.3,0-0.5,0.2-0.5,0.5
						l-0.2,4.7c0,0.1,0,0.3,0.1,0.3c0.1,0.1,0.2,0.1,0.3,0.1h3l0.1,2.8l-2.3-0.1c-0.1,0-0.3,0-0.4,0.1c-0.1,0.1-0.1,0.2-0.1,0.4
						l0.1,3c-0.4,0-0.7,0-1.1,0l-0.5-6.7l-0.1-1.1c-0.2-3.6-2.4-6.4-5-6.4c-0.1,0-0.2,0-0.2,0l-0.3,0c-1.3,0.1-2.4,0.9-3.3,2.2
						c-0.8,1.3-1.2,3-1.1,4.8l0.5,7.9c-1.4,0.2-2.8,0.3-4.2,0.5l-0.3-6.3c0,0,0,0,0,0c0,0,0-0.1,0-0.1l-0.6-13.3c0,0,0-0.1,0-0.1
						c0-0.1,0-0.2-0.1-0.3l-0.4-9.1l-0.4-8.6L1258.6,107.5z M1274.5,118.4L1274.5,118.4l-3.3,0.2v-3.2l3-0.1c0,0,0.1,0.1,0.1,0.1
						L1274.5,118.4z M1274.8,128.1L1274.8,128.1C1274.8,128.1,1274.8,128.1,1274.8,128.1l-2.9,0.1l0.1-4.1l2.6-0.1c0,0,0.1,0,0.1,0
						L1274.8,128.1z M1275,133.4L1275,133.4l0.1,3.7c0,0-0.1,0-0.1,0.1h-2.4l0.1-3.8H1275z M1275.4,144.4L1275.4,144.4
						c-0.6,0-1.2,0-1.8,0l-0.1-2.5l1.8,0L1275.4,144.4z M1281.7,115.1L1281.7,115.1L1281.7,115.1l0.1,2.9c-2.6,0-5.3,0.2-6.4,0.2
						l-0.1-2.9C1276.5,115.2,1279.2,115.1,1281.7,115.1z M1282.8,115.1L1282.8,115.1c1.9,0,3.6,0.1,4,0.3h0l-0.2,2.8
						c-0.9-0.1-2.3-0.2-3.8-0.1L1282.8,115.1z M1279.4,132.5L1279.4,132.5l-0.1-3.6c0.9,0,1.9,0,2.7,0c0,0,0.1,0,0.1,0
						c0,0,0.1,0,0.1,0c1.6,0,3,0,3.5,0l-0.3,3.7C1284.1,132.5,1281.6,132.5,1279.4,132.5z M1282.3,137.1L1282.3,137.1l0.1-3.7
						c1.3,0,2.3,0.1,2.9,0.1l-0.3,3.7C1284.4,137.2,1283.5,137.2,1282.3,137.1z M1281.2,141.9L1281.2,141.9v2.5c-1.6,0-3.2,0-4.8,0
						l-0.1-2.4C1278,142,1279.7,142,1281.2,141.9z M1278.5,138L1278.5,138l-0.1,3c-0.8,0-1.6,0-2.2,0.1l-0.1-3.1
						C1276.9,138,1277.7,138,1278.5,138z M1281.5,133.4L1281.5,133.4l-0.1,3.7c-1.9,0-4.1,0-5.2,0l-0.1-3.6
						C1277.7,133.4,1279.7,133.4,1281.5,133.4z M1275.8,128.9L1275.8,128.9c0.8,0,1.7,0,2.5,0l0.1,3.6c-1,0-1.9,0-2.5,0
						L1275.8,128.9C1275.8,128.9,1275.8,128.9,1275.8,128.9z M1286.1,124.1L1286.1,124.1l-0.3,3.9c-0.5,0-1.7,0-3.2,0l0-3.9
						C1284.2,124,1285.5,124,1286.1,124.1z M1279.2,123.1L1279.2,123.1l0-4c0,0,0,0,0,0c2.8-0.1,6-0.1,7.2,0.1l-0.3,4.1
						C1284.9,123,1281.9,123,1279.2,123.1z M1275.6,123.1L1275.6,123.1l-0.1-3.9c0.7,0,1.7-0.1,2.8-0.1l0,4
						C1277.2,123.1,1276.3,123.1,1275.6,123.1z M1281.7,124L1281.7,124l0,3.9c-2.2,0-4.7,0-5.8,0l-0.1-3.9
						C1277.5,124,1279.7,124,1281.7,124z M1284.6,142L1284.6,142l-0.2,2.6c-0.7,0-1.5-0.1-2.2-0.1v-2.6
						C1283.2,141.9,1284.1,142,1284.6,142z M1279.4,141L1279.4,141l0-3c2.7,0,4.9,0.1,5.4,0.2l-0.2,2.8
						C1283.6,141,1281.4,141,1279.4,141z M1298,138.7L1298,138.7l-0.6,6.7c-1.3-0.2-2.7-0.3-4-0.5l0.5-6.2c0.2-2.1,1-3.6,1.6-3.6
						l1.4,0c0.1,0,0.3,0.1,0.4,0.2C1297.9,135.9,1298.2,137.3,1298,138.7z M1303.4,143.2L1303.4,143.2l-0.3,2.9
						c-0.6-0.1-1.3-0.2-1.9-0.2l0.3-2.9L1303.4,143.2z M1287.7,115.2L1287.7,115.2l14,1l-0.5,3.8c0,0.1,0,0.3,0.1,0.4
						c0.1,0.1,0.2,0.2,0.3,0.2l3.7,0.3c0,0,0,0,0,0l-0.3,3.6l-3.2-0.3c-0.2,0-0.5,0.2-0.5,0.4l-0.7,4.9c0,0.1,0,0.3,0.1,0.4
						c0.1,0.1,0.2,0.2,0.3,0.2l3.2,0.4c0,0.1,0.1,0.1,0.1,0.2l-0.3,3.2l-2.7-0.3c-0.3,0-0.5,0.1-0.5,0.4l-0.7,4.7c0,0,0,0.1,0,0.1
						c0,0.1,0,0.2,0.1,0.3c0.1,0.1,0.2,0.2,0.3,0.2l3,0.4l-0.3,2.8l-2.3-0.4c-0.1,0-0.3,0-0.4,0.1c-0.1,0.1-0.2,0.2-0.2,0.3
						l-0.4,3.4c-0.3,0-0.7-0.1-1-0.1l0.4-7.1l0.1-1.2c0.2-3.7-1.8-6.8-4.4-7l-0.3,0c-2.7-0.1-5,2.7-5.2,6.5l-0.4,7.8
						c-1.4-0.1-2.8-0.2-4.2-0.2l0.2-2.7c0,0,0,0,0,0c0-0.1,0-0.2,0-0.3L1287.7,115.2z M1288.4,107L1288.4,107l1.8,0v3.4
						c0,0.2,0.2,0.4,0.4,0.5l4.1,0.3c0.1,0,0.3,0,0.4-0.1c0.1-0.1,0.1-0.2,0.2-0.3l0.1-3.6l2.9,0.1l-0.4,3.5c0,0.3,0.2,0.5,0.4,0.5
						l4.1,0.5c0.3,0,0.5-0.1,0.5-0.4l0.5-3.5l3,0.4l-0.6,7.2l-0.1,0l-18-1.3L1288.4,107z M1313.6,117.9L1313.6,117.9l-0.5,3
						c-2.5-0.4-5.1-0.8-6.6-1l0.3-3C1308.8,117.2,1311.1,117.5,1313.6,117.9z M1314.5,118.1L1314.5,118.1c1.8,0.3,3.6,0.7,5.6,1.2
						l-0.6,2.9c-1-0.3-3.2-0.7-5.5-1.1L1314.5,118.1z M1313.3,144L1313.3,144l0.7-3.3c0.9,0.2,1.6,0.3,1.9,0.5l-0.6,3.2
						C1314.8,144.3,1314.2,144.2,1313.3,144z M1309.3,144.4L1309.3,144.4c2.8,0.4,5.3,0.8,5.7,0.9c0,0,0.1,0,0.1,0l-0.5,2.8
						c-1.9-0.4-3.8-0.7-5.7-1L1309.3,144.4z M1306.8,143.1L1306.8,143.1l0.6-3.5c2.1,0.3,4.1,0.7,5.6,0.9l-0.7,3.3
						C1310.8,143.6,1308.8,143.4,1306.8,143.1z M1304.7,139.2L1304.7,139.2c0.6,0.1,1.2,0.2,1.7,0.3l-0.6,3.5
						c-0.5-0.1-0.9-0.1-1.4-0.2c0,0,0-0.1,0-0.1L1304.7,139.2z M1304.7,129.4L1304.7,129.4l-2.9-0.4l0.6-4l2.6,0.2
						c0,0.1,0.1,0.1,0.1,0.2L1304.7,129.4z M1310.3,136.3L1310.3,136.3l-0.5,2.8c-1.4-0.2-3.1-0.5-5-0.8l0.3-2.8
						C1306.7,135.7,1308.5,136,1310.3,136.3z M1307.6,131L1307.6,131l-0.6,3.8c-0.7-0.1-1.3-0.2-1.8-0.3l0.3-3.8
						C1306.1,130.8,1306.8,130.9,1307.6,131z M1305.5,119.8L1305.5,119.8L1305.5,119.8c-0.1,0-0.2,0-0.3,0c-0.1,0-0.1,0-0.1,0
						l-2.9-0.2l0.4-3.1l2.9,0.3c0.1,0.1,0.2,0.1,0.3,0.2L1305.5,119.8z M1315.9,126.4L1315.9,126.4c-1.5-0.3-3.6-0.7-6.8-1.2
						l0.6-3.9c2.6,0.4,5.1,0.8,7,1.2L1315.9,126.4z M1314.9,136.1L1314.9,136.1l0.8-3.9c1,0.2,1.6,0.3,1.9,0.4l-0.8,3.9
						C1316.4,136.3,1315.7,136.2,1314.9,136.1z M1307.9,134.9L1307.9,134.9l0.6-3.8c2.2,0.3,4.5,0.6,6.2,0.9l-0.8,3.9
						C1312.1,135.6,1309.8,135.2,1307.9,134.9z M1311.2,136.4L1311.2,136.4c2.6,0.4,4.9,0.8,5.4,1l-0.6,2.9
						c-0.9-0.3-2.6-0.7-5.3-1.1L1311.2,136.4z M1316.9,126.6L1316.9,126.6l0.8-3.9c0.8,0.2,1.4,0.3,1.7,0.4l-0.8,3.9
						C1318.3,126.9,1317.7,126.8,1316.9,126.6z M1318.4,127.9L1318.4,127.9l-0.7,3.7c-0.6-0.2-2.1-0.5-5.8-1l0.8-3.8
						c1.2,0.2,2.3,0.4,3.3,0.6c0.1,0,0.1,0.1,0.2,0.1c0.1,0,0.1,0,0.2,0C1317.4,127.7,1318.1,127.8,1318.4,127.9z M1306,124.7
						L1306,124.7l0.3-3.9c0.8,0.1,1.6,0.2,2.4,0.4l-0.6,3.9C1307.5,125,1306.8,124.9,1306,124.7C1306,124.8,1306,124.7,1306,124.7z
						 M1311.8,126.7L1311.8,126.7l-0.8,3.8c-1.5-0.2-3.2-0.4-5.4-0.7c0,0,0,0,0-0.1l0.4-4.1C1307.7,126,1309.8,126.3,1311.8,126.7z
						 M1304.3,143.7L1304.3,143.7c1.2,0.2,2.6,0.4,4,0.6l-0.5,2.7c-1.3-0.2-2.5-0.4-3.8-0.6L1304.3,143.7z M1304.1,135.2
						L1304.1,135.2l-0.3,3c-0.1,0.1-0.1,0.1-0.2,0.2l-2.4-0.3l0.6-3.8l2.1,0.3c0,0,0,0.1-0.1,0.1C1304,135,1304,135.1,1304.1,135.2z
						 M1316.7,109.9L1316.7,109.9l2.5,0.2l-0.7,3.9c0,0.3,0.1,0.5,0.4,0.5l3.1,0.6c0.3,0,0.5-0.1,0.5-0.4l0.9-3.7l2.6,0.7l-0.9,3.5
						c0,0.1,0,0.3,0,0.4c0.1,0.1,0.2,0.2,0.3,0.2l3.5,0.9c0.2,0.1,0.5-0.1,0.6-0.3l1.2-3.3l2.5,0.8l-1.7,6.8l-5-0.9
						c-0.3,0-0.5,0.1-0.5,0.4c0,0.3,0.1,0.5,0.4,0.5l1,0.2l-0.8,3.1c-0.1,0.3,0.1,0.5,0.3,0.6c0,0,0.1,0,0.1,0
						c0.2,0,0.4-0.1,0.5-0.4l0.8-3.1l3,0.5l-1.9,7.6c0,0-0.1,0-0.1,0l-4.3-0.7c-0.2,0-0.5,0.1-0.5,0.4l-0.8,3.9
						c-0.1,0.3,0.1,0.5,0.4,0.6c0,0,0.1,0,0.1,0c0.2,0,0.4-0.2,0.5-0.4l0.7-3.5l3.8,0.6h0l-0.8,3.4c-2.9-0.7-4.7,0.8-5.5,3
						c-1.5,4-2.7,8.1-4,12.3c-1.2-0.2-2.4-0.5-3.6-0.7l5.7-29.3c0-0.3-0.1-0.5-0.4-0.5c-1.8-0.5-3.6-0.9-5.4-1.2L1316.7,109.9z
						 M1324.4,150.2L1324.4,150.2c-1.6-0.4-3.2-0.7-4.8-1l0.9,0.1c1-3,1.7-8.8,3.4-11.1c0.8-1,2.2-1.3,3.4,0.3c0,0,0-0.1,0.1-0.3
						L1324.4,150.2z M1311.5,154L1311.5,154c3.5,0.7,7.1,1.5,10.7,2.4c0,0,0.1,0,0.1,0l-0.8,2.3c-3.6-0.9-7.1-1.7-10.6-2.3
						L1311.5,154z M1304.2,151.7L1304.2,151.7l0.4-1.6c3.2,0.5,6.4,1.1,9.6,1.7l-0.5,1.7C1310.5,152.8,1307.4,152.2,1304.2,151.7z
						 M1299.9,152L1299.9,152c3.5,0.5,7.1,1,10.7,1.7l-0.6,2.5c-3.5-0.6-6.9-1.1-10.3-1.5L1299.9,152z M1294.4,150.5L1294.4,150.5
						l0.2-1.6c3,0.3,6.1,0.7,9.1,1.1l-0.4,1.6C1300.3,151.1,1297.3,150.7,1294.4,150.5z M1289.5,151L1289.5,151
						c3.1,0.2,6.3,0.5,9.5,0.9l-0.3,2.7c-3.2-0.3-6.4-0.6-9.6-0.8L1289.5,151z M1285.9,149.9L1285.9,149.9l0.1-1.7
						c2.5,0.1,5.1,0.3,7.6,0.5l-0.2,1.6c-1.4-0.1-2.8-0.2-4.2-0.3c0,0-0.1,0-0.1,0c-0.1,0-0.1,0-0.2,0
						C1288,150,1287,149.9,1285.9,149.9z M1280.7,150.8L1280.7,150.8c2.6,0,5.2,0.1,7.9,0.2l-0.4,2.8c-2.6-0.1-5.1-0.1-7.7-0.1
						L1280.7,150.8z M1276.1,149.9L1276.1,149.9l-0.1-1.9c3,0,6.1,0,9.2,0.1l-0.1,1.7c-1.5,0-3-0.1-4.5-0.1c0,0-0.1,0-0.2,0
						c-0.1,0-0.2,0-0.2,0C1278.7,149.8,1277.4,149.8,1276.1,149.9z M1271.7,151L1271.7,151c2.7-0.2,5.4-0.3,8.1-0.3l-0.2,2.9
						c-2.6,0-5.3,0.1-7.9,0.3L1271.7,151z M1267.1,150.5L1267.1,150.5l-0.2-2c0,0,0,0,0-0.1c2.7-0.2,5.4-0.3,8.1-0.4v0l0.1,1.9
						C1272.4,150,1269.8,150.2,1267.1,150.5z M1270.7,151.1L1270.7,151.1l0,2.9c-2.5,0.2-5,0.4-7.6,0.7l-0.5-2.8
						C1265.4,151.6,1268.1,151.3,1270.7,151.1z M1259.2,151.4L1259.2,151.4l-0.4-2c0-0.1,0-0.1-0.1-0.2c2.4-0.3,4.8-0.6,7.3-0.7
						c0,0,0,0.1,0,0.1l0.2,2C1263.8,150.8,1261.5,151.1,1259.2,151.4z M1261.7,152L1261.7,152l0.5,2.8c-2.3,0.3-4.7,0.6-7.1,1
						l-0.6-2.7C1256.9,152.7,1259.3,152.3,1261.7,152z M1254.1,156L1254.1,156c-2.4,0.4-4.8,0.8-7.2,1.3l-0.8-2.4
						c1.4-0.3,2.8-0.6,4.2-0.9c0,0,0.1,0,0.1,0c0,0,0.1,0,0.1,0c1-0.2,2-0.4,3-0.6L1254.1,156z M1250.7,152.9L1250.7,152.9l-0.4-2.2
						c0,0,0-0.1,0-0.1c2.5-0.5,5-0.9,7.6-1.3c0,0.1,0,0.2,0,0.3l0.4,2C1255.7,152,1253.2,152.4,1250.7,152.9z M1322.6,155.5
						L1322.6,155.5c0,0-0.1-0.1-0.1-0.1c-2.6-0.7-5.2-1.3-7.8-1.8l0.5-1.7c2.7,0.6,5.3,1.2,8,1.9L1322.6,155.5z M1311,258.5
						L1311,258.5l-29-51c-0.3-0.5-1-0.7-1.5-0.4c-0.2,0.1-0.4,0.3-0.5,0.5l-28,51.8l-0.2-0.2l-0.1-0.1l-0.1-0.1l-0.1-0.1l-0.1-0.1
						l-0.2-0.2l-0.1-0.1l-0.1-0.1l-0.1-0.1l-0.2-0.2l-0.1-0.1l-0.1-0.1c-0.4-0.4-0.7-0.7-1-1.1c0,0,0,0,0-0.1
						c-1.2-1.3-2.3-2.7-3.3-4.1c-0.4-0.5-0.8-1.1-1.1-1.7c-0.1-0.1-0.2-0.3-0.3-0.5c-0.3-0.5-0.6-1-0.9-1.5
						c-0.1-0.2-0.2-0.3-0.3-0.5c-0.3-0.6-0.6-1.2-0.9-1.8c0-0.1-0.1-0.1-0.1-0.2c-0.4-0.7-0.7-1.5-1-2.3l39.4-73.7l40.4,72.7
						c-0.3,0.6-0.5,1.2-0.8,1.9c-0.1,0.3-0.3,0.5-0.4,0.8c-0.2,0.5-0.5,1-0.7,1.4c-0.1,0.2-0.2,0.4-0.3,0.6c-0.3,0.6-0.6,1.1-1,1.6
						c-0.1,0.2-0.3,0.4-0.4,0.6c-0.3,0.4-0.5,0.8-0.8,1.2c-0.1,0.2-0.3,0.4-0.4,0.6c-0.4,0.5-0.8,1.1-1.2,1.6
						c-0.1,0.1-0.1,0.2-0.2,0.2c-0.4,0.5-0.7,0.9-1.1,1.3c-0.1,0.1-0.3,0.3-0.4,0.4C1312.9,256.6,1311.9,257.6,1311,258.5z
						 M1253.7,260.9L1253.7,260.9l27.4-50.6l28.2,49.7c-2.2,1.8-4.6,3.5-7.1,4.8c-6,3.2-12.6,5.1-19.3,5.4
						c-6.7,0.3-13.4-0.8-19.6-3.5C1259.9,265.3,1256.7,263.3,1253.7,260.9z M1253.6,267.4L1253.6,267.4c-0.1-1.8-0.6-3.4-1.2-4.8
						c3.1,2.5,6.5,4.6,10.1,6.1c6.5,2.8,13.5,4,20.5,3.6c7-0.4,14-2.3,20.2-5.7c2.9-1.6,5.6-3.4,8.1-5.6c-1.1,1.8-1.9,3.7-2,6.2
						c-0.2,2.6,0.5,4.8,2,6.5c2.1,2.3,5.7,3.6,11,3.9c0.7,0,1.5,0.1,2.3,0.1c2,0,3.9-0.1,5.7-0.2c1.6-0.1,3.2-0.2,4.6-0.2
						c3.8,0,7,0.7,10,3.8c-3.5,1-7.2,1.5-11.4,1.5c-4.1,0-8.4-0.5-11.9-0.9c-12.9-1.8-25.4-2.7-38-2.7c-14.2,0-29,1.2-45.4,3.5
						c-4.3,0.6-7.9,1-11.2,1c-3.5,0-6.6-0.5-9.6-1.7c3.1-3.7,6.5-4.5,10.5-4.5c1.5,0,3,0.1,4.6,0.2c1.8,0.1,3.7,0.3,5.7,0.3
						c0.8,0,1.6,0,2.3-0.1c5.3-0.3,8.9-1.6,11-3.9C1253.1,272.3,1253.8,270.1,1253.6,267.4z M1354.6,238L1354.6,238l-4,10.7
						c-0.1,0.2-0.1,0.5,0,0.7l3.2,11.1c-1.6-0.6-3.5-1-5.7-1.2c0,0-0.1,0-0.1,0c-0.3,0-0.6,0-1-0.1c0,0,0,0-0.1,0
						c-0.6,0-1.3,0-1.9,0c-2.3,0-4.6,0.2-6.9,0.3c-2.2,0.2-4.5,0.3-6.7,0.3c-5,0-8.5-0.9-11-3c-0.1-0.1-0.2-0.2-0.3-0.3
						c-0.1-0.1-0.2-0.2-0.3-0.3c-0.6-0.6-1.1-1.2-1.6-1.9c0-0.1-0.1-0.1-0.2-0.2c0,0,0,0-0.1-0.1c0,0-0.1-0.1-0.1-0.1
						c1.8-2.4,3.4-5.1,4.8-8.1C1332.4,240.2,1340.4,238.2,1354.6,238z M1356.5,262L1356.5,262l-3.7-12.8l4.5-11.9
						c0.1-0.3,0.1-0.7-0.1-1c-0.2-0.3-0.5-0.5-0.9-0.5c-14.4,0-22.8,1.7-32.1,6.8c1.9-5,3-10.7,3.3-16.9v0l3.1-61.8l0-0.1
						c0-0.6-0.5-1.1-1.1-1.1h-3.2l0.5-1.2c0.1-0.1,0.1-0.2,0-0.4c0-0.1-0.1-0.2-0.3-0.3l-3.7-1.6c-0.1,0-0.1-0.1-0.2-0.1
						c0,0-0.1,0-0.1,0l0,0l1.7-4.9l4.5,1.5c0.2,0.1,0.5,0,0.6-0.3l0.9-2.4c0-0.1,0-0.3,0-0.4c0-0.1-0.1-0.2-0.3-0.2l-4.4-1.6
						c0-0.1,0-0.1-0.1-0.1l9.1-36.6c0.1-0.2-0.1-0.5-0.3-0.6l-3.4-1.1c-0.2-0.1-0.5,0.1-0.6,0.3l-1.2,3.3l-2.7-0.7l0.9-3.5
						c0-0.1,0-0.3,0-0.4c-0.1-0.1-0.2-0.2-0.3-0.2l-3.5-0.9c-0.1,0-0.3,0-0.4,0.1c-0.1,0.1-0.2,0.2-0.2,0.3l-0.9,3.7l-2.2-0.4l0.7-4
						c0-0.1,0-0.3-0.1-0.4c-0.1-0.1-0.2-0.2-0.3-0.2l-3.4-0.3c-0.2,0-0.5,0.1-0.5,0.4l-1.4,7.5l-7.7-1.2l0.7-7.7
						c0-0.3-0.2-0.5-0.4-0.5l-4-0.6c-0.3,0-0.5,0.1-0.5,0.4l-0.5,3.5l-3.1-0.4l0.4-3.5c0-0.1,0-0.3-0.1-0.4
						c-0.1-0.1-0.2-0.2-0.3-0.2l-3.9-0.2c-0.1,0-0.3,0-0.3,0.1c-0.1,0.1-0.1,0.2-0.1,0.3l-0.1,3.6l-3.2-0.3l0-3.4
						c0-0.3-0.2-0.5-0.5-0.5l-2.7,0h0c-0.2,0-0.5,0.2-0.5,0.4l-0.6,7.7l-1.7-0.1l-9.9,0.1l-0.3-7.6c0-0.3-0.2-0.5-0.5-0.5h-4.1
						c-0.1,0-0.3,0.1-0.3,0.1c-0.1,0.1-0.1,0.2-0.1,0.3l0.1,3.4h-3.1l-0.1-3.6c0-0.3-0.2-0.5-0.5-0.5l-3.9,0.1
						c-0.1,0-0.2,0.1-0.3,0.1c-0.1,0.1-0.1,0.2-0.1,0.3l0.2,3.6l-2.3,0.2l-0.3-3.5c0-0.1-0.1-0.2-0.2-0.3c-0.1-0.1-0.2-0.1-0.4-0.1
						l-3.6,0.4c-0.2,0-0.4,0.2-0.4,0.5l0.4,8.6l-6.4,0.9l-2.3-8.3c-0.1-0.2-0.3-0.4-0.5-0.3l-3.3,0.6c-0.1,0-0.2,0.1-0.3,0.2
						c-0.1,0.1-0.1,0.2-0.1,0.4l0.9,3.6l-2.8,0.6l-1.2-4c-0.1-0.2-0.3-0.4-0.6-0.3l-3.6,1c-0.1,0-0.2,0.1-0.3,0.2
						c-0.1,0.1-0.1,0.2,0,0.4l1.1,3.6l-2.1,0.6l-1.3-4c0-0.1-0.1-0.2-0.2-0.3c-0.1-0.1-0.2-0.1-0.4,0l-3.9,1.3
						c-0.2,0.1-0.4,0.3-0.3,0.6l9.8,37.4l-4.6,1.4c-0.2,0.1-0.4,0.3-0.3,0.6l0.6,2.3c0.1,0.2,0.3,0.4,0.6,0.3l4.7-1.1l1.6,5.2
						l-3.5,1.5c-0.1,0.1-0.2,0.2-0.3,0.3c0,0.1,0,0.3,0,0.4l0.8,1.5h-2c-0.6,0-1.1,0.5-1.1,1.1v34.4v0.1l1.6,32.5l0,0.1
						c0.5,4.3,1.5,8.2,2.7,11.8c-9.2-5-17.5-6.7-31.9-6.7c-0.4,0-0.7,0.2-0.9,0.5c-0.2,0.3-0.3,0.7-0.1,1l4.5,11.9l-3.7,12.8l0,0
						c-3.4,2.3-4.2,7-3.2,10.6c1.2,4.2,3.3,6.5,6.2,8.5c1.3,2.9,2.4,6,3.6,9.3c1.1,3,2.2,6.1,3.4,9c1.3,3.2,3.7,4.6,7.8,4.6
						c1.9,0,4.3-0.3,7.8-1c16.5-2.4,33.3-3.7,50-3.7c18.4,0,36.5,1.5,53.6,4.5c0,0,0,0,0.1,0c1.6,0.2,3,0.3,4.2,0.3
						c6.7,0,9.9-3,10.8-10.1l0-0.1c0.8-6.9,3.6-13.5,3.6-13.5c2-1.6,4.2-3.8,5.4-7.9C1360.7,269,1359.9,264.2,1356.5,262z"/>
					<path id="XMLID_261_" class="st6" d="M1311.5,199.2L1311.5,199.2c0-0.2,0.1-0.3,0.2-0.4c0.1-0.1,0.3-0.2,0.4-0.2h9.5
						c0.2,0,0.3,0.1,0.4,0.2c0.1,0.1,0.2,0.3,0.2,0.4v0.4c0,0.2-0.1,0.3-0.2,0.4c-0.1,0.1-0.3,0.2-0.4,0.2h-2.7l-0.1,0h-4l-0.1,0
						h-2.7c-0.2,0-0.3-0.1-0.4-0.2l0,0c-0.1-0.1-0.2-0.3-0.2-0.4V199.2z M1315,172.5L1315,172.5l1.9-2.1l1.7,2l0.2,25.3h-3.8V172.5z
						 M1314.9,208.8L1314.9,208.8h4c0,0-0.1,0,0,0.1c0.1,0.2,0.1,0.4,0.1,0.7c0,0.3,0,0.5-0.1,0.7c0,0,0.1,0.1,0,0.1h-4
						c-0.1,0,0.1,0,0-0.1c-0.1-0.2-0.1-0.4-0.1-0.7C1314.8,209.3,1314.9,209,1314.9,208.8C1315,208.8,1314.9,208.8,1314.9,208.8z
						 M1314.9,206.2L1314.9,206.2h4c0.1,0-0.1,0,0,0.1c0.1,0.2,0.1,0.4,0.1,0.7c0,0.3,0,0.5-0.1,0.7c0,0,0.1,0.1,0,0.1h-4
						c0,0,0.1,0,0-0.1c-0.1-0.2-0.1-0.4-0.1-0.7S1314.9,206.5,1314.9,206.2C1315,206.3,1314.9,206.2,1314.9,206.2z M1314.9,203.7
						L1314.9,203.7h3.9l0,0.1c0.1,0.2,0.1,0.4,0.1,0.7c0,0.3,0,0.5-0.1,0.7c0,0.1,0.1,0.1,0,0.1h-4c-0.1,0,0.1,0,0-0.1
						c-0.1-0.2-0.1-0.4-0.1-0.7C1314.8,204.2,1314.9,203.9,1314.9,203.7C1315,203.7,1314.9,203.7,1314.9,203.7z M1314.9,201.2
						L1314.9,201.2h4c0.1,0-0.1,0,0,0.1c0.1,0.2,0.1,0.4,0.1,0.7c0,0.3,0,0.5-0.1,0.7c0,0,0.1,0.1,0,0.1h-4c0,0,0.1,0,0-0.1
						c-0.1-0.2-0.1-0.4-0.1-0.7C1314.8,201.7,1314.9,201.4,1314.9,201.2C1315,201.2,1314.9,201.2,1314.9,201.2z M1320.1,211.3
						L1320.1,211.3c0.1,0,0.2,0.1,0.2,0.1l0,0c0.1,0.2,0.2,0.4,0.2,0.6s-0.1,0.5-0.2,0.6c-0.1,0.1-0.2,0.2-0.2,0.2h-2.8
						c-0.1,0-0.3,0-0.4,0c-0.1,0-0.3,0-0.4,0h-2.8c-0.1,0-0.2-0.1-0.2-0.2v0c-0.1-0.1-0.2-0.4-0.2-0.6s0.1-0.5,0.2-0.6v0
						c0.1-0.1,0.2-0.2,0.2-0.2h1.1l0.1,0h4l0.1,0H1320.1z M1317.8,215.9L1317.8,215.9c-0.2,0.2-0.5,0.4-0.9,0.4
						c-0.3,0-0.7-0.1-0.9-0.4c-0.2-0.2-0.4-0.5-0.4-0.9c0-0.3,0.1-0.7,0.4-0.9c0.2-0.2,0.3-0.3,0.6-0.3h0.6c0.2,0.1,0.4,0.2,0.6,0.3
						c0.2,0.2,0.4,0.5,0.4,0.9C1318.1,215.4,1318,215.7,1317.8,215.9z M1311,200.7c0.3,0.3,0.7,0.5,1.1,0.5h1.8
						c-0.1,0.2-0.1,0.5-0.1,0.8c0,0.4,0.1,0.8,0.2,1.1c0,0.1,0.1,0.1,0.1,0.2c0,0.1-0.1,0.1-0.1,0.2c-0.1,0.3-0.2,0.7-0.2,1.1
						c0,0.4,0.1,0.8,0.2,1.1c0,0.1,0.1,0.1,0.1,0.2c0,0.1-0.1,0.1-0.1,0.2c-0.1,0.3-0.2,0.7-0.2,1.1c0,0.4,0.1,0.8,0.2,1.1
						c0,0.1,0.1,0.1,0.1,0.2c0,0.1-0.1,0.1-0.1,0.2c-0.1,0.3-0.2,0.7-0.2,1.1c0,0.3,0,0.6,0.1,0.8h-0.3c-0.4,0-0.8,0.2-1,0.6
						c-0.2,0.3-0.4,0.7-0.4,1.2c0,0.4,0.1,0.9,0.4,1.2c0.3,0.4,0.6,0.6,1,0.6h1.4c-0.2,0.3-0.4,0.8-0.4,1.2c0,0.6,0.2,1.2,0.6,1.6
						c0.4,0.4,0.9,0.6,1.5,0.6c0.6,0,1.1-0.3,1.5-0.6c0.4-0.4,0.6-0.9,0.6-1.6c0-0.4-0.1-0.9-0.4-1.2h1.4c0.4,0,0.8-0.2,1-0.6
						c0.2-0.3,0.4-0.7,0.4-1.2c0-0.4-0.1-0.9-0.4-1.2l0,0c-0.3-0.3-0.6-0.5-1-0.5h-0.3c0.1-0.2,0.1-0.5,0.1-0.8
						c0-0.4-0.1-0.8-0.2-1.1c0-0.1-0.1-0.1-0.1-0.2l0.1-0.2c0.1-0.3,0.2-0.7,0.2-1.1c0-0.4-0.1-0.8-0.2-1.1c0-0.1-0.1-0.1-0.1-0.2
						c0-0.1,0.1-0.1,0.1-0.2c0.1-0.3,0.2-0.7,0.2-1.1c0-0.4-0.1-0.8-0.2-1.1l0,0c0-0.1-0.1-0.1-0.1-0.2l0.1-0.2
						c0.1-0.3,0.2-0.7,0.2-1.1c0-0.3,0-0.6-0.1-0.8h1.9c0.4,0,0.8-0.2,1.1-0.5c0.3-0.3,0.5-0.7,0.5-1.1v-0.4c0-0.4-0.2-0.8-0.5-1.1
						c-0.3-0.3-0.7-0.5-1.1-0.5h-1.9l-0.2-25.4c0-0.1,0-0.2-0.1-0.3l-2.2-2.6l0,0c-0.2-0.2-0.5-0.2-0.7,0l-2.3,2.6
						c-0.1,0.1-0.1,0.2-0.1,0.3v25.3h-1.9c-0.4,0-0.8,0.2-1.1,0.5c-0.3,0.3-0.5,0.7-0.5,1.1v0.4C1310.6,200,1310.7,200.4,1311,200.7
						L1311,200.7z"/>
					<path id="XMLID_251_" class="st6" d="M1275.6,248.8L1275.6,248.8c0-0.2,0.1-0.3,0.2-0.4c0.1-0.1,0.3-0.2,0.4-0.2h9.5
						c0.2,0,0.3,0.1,0.4,0.2c0.1,0.1,0.2,0.3,0.2,0.4v0.4c0,0.2-0.1,0.3-0.2,0.4h0c-0.1,0.1-0.3,0.2-0.4,0.2h-2.7h-0.1h-4h-0.1h-2.7
						c-0.2,0-0.3-0.1-0.4-0.2l0,0c-0.1-0.1-0.2-0.3-0.2-0.4V248.8z M1279.1,222.1L1279.1,222.1l1.9-2.1l1.7,2l0.2,25.3h-3.8V222.1z
						 M1279,258.3L1279,258.3h4c0,0-0.1,0,0,0.1c0.1,0.2,0.1,0.4,0.1,0.7c0,0.3,0,0.5-0.1,0.7c0,0,0.1,0.1,0,0.1h-4
						c-0.1,0,0.1,0,0-0.1c-0.1-0.2-0.1-0.4-0.1-0.7C1278.9,258.8,1278.9,258.6,1279,258.3C1279,258.4,1278.9,258.3,1279,258.3z
						 M1279,255.8L1279,255.8h4c0.1,0-0.1,0,0,0.1c0.1,0.2,0.1,0.4,0.1,0.7c0,0.3,0,0.5-0.1,0.7c0,0,0.1,0.1,0,0.1h-4
						c0,0,0.1,0,0-0.1c-0.1-0.2-0.1-0.4-0.1-0.7C1278.9,256.3,1278.9,256.1,1279,255.8C1279,255.8,1278.9,255.8,1279,255.8z
						 M1279,253.3L1279,253.3h3.9l0,0.1c0.1,0.2,0.1,0.4,0.1,0.7c0,0.3,0,0.5-0.1,0.7c0,0.1,0.1,0.1,0,0.1h-4c-0.1,0,0.1,0,0-0.1
						c-0.1-0.2-0.1-0.4-0.1-0.7C1278.9,253.8,1278.9,253.5,1279,253.3C1279,253.3,1278.9,253.3,1279,253.3z M1279,250.7L1279,250.7
						h4c0.1,0-0.1,0,0,0.1c0.1,0.2,0.1,0.4,0.1,0.7c0,0.3,0,0.5-0.1,0.7c0,0,0.1,0.1,0,0.1h-4c0,0,0.1,0,0-0.1
						c-0.1-0.2-0.1-0.4-0.1-0.7C1278.9,251.2,1278.9,251,1279,250.7C1279,250.8,1278.9,250.7,1279,250.7z M1284.2,260.9
						L1284.2,260.9c0.1,0,0.2,0.1,0.2,0.1l0,0c0.1,0.2,0.2,0.4,0.2,0.6c0,0.3-0.1,0.5-0.2,0.6c-0.1,0.1-0.2,0.2-0.3,0.2h-2.8
						c-0.1,0-0.3,0-0.4,0s-0.3,0-0.4,0h-2.8c-0.1,0-0.2-0.1-0.2-0.2v0c-0.1-0.1-0.2-0.4-0.2-0.6c0-0.3,0.1-0.5,0.2-0.6v0
						c0.1-0.1,0.2-0.2,0.2-0.2h1.1l0.1,0h4l0.1,0H1284.2z M1281.8,265.5L1281.8,265.5c-0.2,0.2-0.5,0.4-0.9,0.4
						c-0.3,0-0.7-0.1-0.9-0.4c-0.2-0.2-0.4-0.5-0.4-0.9c0-0.3,0.1-0.7,0.4-0.9h0c0.1-0.2,0.3-0.3,0.6-0.3h0.6
						c0.2,0.1,0.4,0.2,0.6,0.3v0c0.2,0.2,0.4,0.5,0.4,0.9C1282.2,264.9,1282.1,265.3,1281.8,265.5z M1275.1,250.3
						c0.3,0.3,0.7,0.5,1.1,0.5h1.9c-0.1,0.2-0.1,0.5-0.1,0.8c0,0.4,0.1,0.8,0.2,1.1c0,0.1,0.1,0.1,0.1,0.2c0,0.1-0.1,0.1-0.1,0.2
						c-0.1,0.3-0.2,0.7-0.2,1.1c0,0.4,0.1,0.8,0.2,1.1c0,0.1,0.1,0.1,0.1,0.2c0,0.1-0.1,0.1-0.1,0.2c-0.1,0.3-0.2,0.7-0.2,1.1
						c0,0.4,0.1,0.8,0.2,1.1c0,0.1,0.1,0.1,0.1,0.2c0,0.1-0.1,0.1-0.1,0.2c-0.1,0.3-0.2,0.7-0.2,1.1c0,0.3,0,0.6,0.1,0.8h-0.3
						c-0.4,0-0.8,0.2-1,0.6c-0.2,0.3-0.4,0.7-0.4,1.2c0,0.4,0.1,0.9,0.4,1.2c0.3,0.4,0.6,0.6,1,0.6h1.4c-0.2,0.3-0.4,0.8-0.4,1.2
						c0,0.6,0.2,1.2,0.6,1.6c0.4,0.4,0.9,0.6,1.5,0.6s1.2-0.3,1.5-0.6c0.4-0.4,0.6-0.9,0.6-1.6c0-0.4-0.1-0.9-0.4-1.2h1.4
						c0.4,0,0.8-0.2,1-0.6c0.2-0.3,0.4-0.7,0.4-1.2c0-0.4-0.1-0.9-0.4-1.2l0,0c-0.3-0.3-0.6-0.5-1-0.5h-0.3c0.1-0.2,0.1-0.5,0.1-0.8
						c0-0.4-0.1-0.8-0.2-1.1c0-0.1-0.1-0.1-0.1-0.2l0.1-0.2c0.1-0.3,0.2-0.7,0.2-1.1c0-0.4-0.1-0.8-0.2-1.1c0-0.1-0.1-0.1-0.1-0.2
						c0-0.1,0.1-0.1,0.1-0.2c0.1-0.3,0.2-0.7,0.2-1.1c0-0.4-0.1-0.8-0.2-1.1l0,0c0-0.1,0-0.1-0.1-0.1l0.1-0.2
						c0.1-0.3,0.2-0.7,0.2-1.1c0-0.3,0-0.6-0.1-0.8h1.9c0.4,0,0.8-0.2,1.1-0.5v0c0.3-0.3,0.5-0.7,0.5-1.1v-0.4
						c0-0.4-0.2-0.8-0.5-1.1c-0.3-0.3-0.7-0.5-1.1-0.5h-2l-0.2-25.4c0-0.1,0-0.2-0.1-0.3l-2.2-2.6l0,0c-0.2-0.2-0.5-0.2-0.7,0
						l-2.3,2.6c-0.1,0.1-0.1,0.2-0.1,0.3v25.3h-1.9c-0.4,0-0.8,0.2-1.1,0.5c-0.3,0.3-0.5,0.7-0.5,1.1v0.4
						C1274.6,249.6,1274.8,250,1275.1,250.3L1275.1,250.3z"/>
					<path id="XMLID_241_" class="st6" d="M1241.4,199.2L1241.4,199.2c0-0.2,0.1-0.3,0.2-0.4c0.1-0.1,0.3-0.2,0.4-0.2h9.5
						c0.2,0,0.3,0.1,0.4,0.2c0.1,0.1,0.2,0.3,0.2,0.4v0.4c0,0.2-0.1,0.3-0.2,0.4h0c-0.1,0.1-0.3,0.2-0.4,0.2h-2.7l-0.1,0h-4l-0.1,0
						h-2.7c-0.2,0-0.3-0.1-0.4-0.2l0,0c-0.1-0.1-0.2-0.3-0.2-0.4V199.2z M1244.9,172.5L1244.9,172.5l1.9-2.1l1.7,2l0.2,25.3h-3.8
						V172.5z M1244.8,208.8L1244.8,208.8h4c0,0-0.1,0,0,0.1c0.1,0.2,0.1,0.4,0.1,0.7c0,0.3,0,0.5-0.1,0.7c0,0,0.1,0.1,0,0.1h-4
						c-0.1,0,0.1,0,0-0.1c-0.1-0.2-0.1-0.4-0.1-0.7C1244.7,209.3,1244.8,209,1244.8,208.8C1244.8,208.8,1244.7,208.8,1244.8,208.8z
						 M1244.8,206.2L1244.8,206.2h4c0.1,0-0.1,0,0,0.1c0.1,0.2,0.1,0.4,0.1,0.7c0,0.3,0,0.5-0.1,0.7c0,0,0.1,0.1,0,0.1h-4
						c0,0,0.1,0,0-0.1c-0.1-0.2-0.1-0.4-0.1-0.7S1244.8,206.5,1244.8,206.2C1244.8,206.3,1244.7,206.2,1244.8,206.2z M1244.8,203.7
						L1244.8,203.7h3.9l0,0.1c0.1,0.2,0.1,0.4,0.1,0.7c0,0.3,0,0.5-0.1,0.7c0,0.1,0.1,0.1,0,0.1h-4c-0.1,0,0.1,0,0-0.1
						c-0.1-0.2-0.1-0.4-0.1-0.7C1244.7,204.2,1244.8,203.9,1244.8,203.7C1244.8,203.7,1244.7,203.7,1244.8,203.7z M1244.8,201.2
						L1244.8,201.2h4c0.1,0-0.1,0,0,0.1c0.1,0.2,0.1,0.4,0.1,0.7c0,0.3,0,0.5-0.1,0.7c0,0,0.1,0.1,0,0.1h-4c0,0,0.1,0,0-0.1
						c-0.1-0.2-0.1-0.4-0.1-0.7C1244.7,201.7,1244.8,201.4,1244.8,201.2C1244.8,201.2,1244.7,201.2,1244.8,201.2z M1250,211.3
						L1250,211.3c0.1,0,0.2,0.1,0.2,0.1l0,0c0.1,0.2,0.2,0.4,0.2,0.6s-0.1,0.5-0.2,0.6c-0.1,0.1-0.2,0.2-0.3,0.2h-2.8
						c-0.1,0-0.3,0-0.4,0c-0.1,0-0.3,0-0.4,0h-2.8c-0.1,0-0.2-0.1-0.2-0.2v0c-0.1-0.1-0.2-0.4-0.2-0.6s0.1-0.5,0.2-0.6v0
						c0.1-0.1,0.2-0.2,0.2-0.2h1.1l0.1,0h4l0.1,0H1250z M1247.6,215.9L1247.6,215.9c-0.2,0.2-0.5,0.4-0.9,0.4
						c-0.3,0-0.7-0.1-0.9-0.4c-0.2-0.2-0.4-0.5-0.4-0.9c0-0.3,0.1-0.7,0.4-0.9c0.2-0.2,0.4-0.3,0.6-0.3h0.6c0.2,0.1,0.4,0.2,0.6,0.3
						c0.2,0.2,0.4,0.5,0.4,0.9C1248,215.4,1247.9,215.7,1247.6,215.9z M1240.9,200.7c0.3,0.3,0.7,0.5,1.1,0.5h1.9
						c-0.1,0.2-0.1,0.5-0.1,0.8c0,0.4,0.1,0.8,0.2,1.1c0,0.1,0.1,0.1,0.1,0.2c0,0.1-0.1,0.1-0.1,0.2c-0.1,0.3-0.2,0.7-0.2,1.1
						c0,0.4,0.1,0.8,0.2,1.1c0,0.1,0.1,0.1,0.1,0.2c0,0.1-0.1,0.1-0.1,0.2c-0.1,0.3-0.2,0.7-0.2,1.1c0,0.4,0.1,0.8,0.2,1.1
						c0,0.1,0.1,0.1,0.1,0.2c0,0.1-0.1,0.1-0.1,0.2c-0.1,0.3-0.2,0.7-0.2,1.1c0,0.3,0,0.6,0.1,0.8h-0.3c-0.4,0-0.8,0.2-1,0.6
						c-0.2,0.3-0.4,0.7-0.4,1.2c0,0.4,0.1,0.9,0.4,1.2c0.2,0.4,0.6,0.6,1,0.6h1.4c-0.2,0.3-0.4,0.8-0.4,1.2c0,0.6,0.2,1.2,0.6,1.6
						c0.4,0.4,0.9,0.6,1.5,0.6c0.6,0,1.2-0.3,1.5-0.6c0.4-0.4,0.6-0.9,0.6-1.6c0-0.4-0.1-0.9-0.4-1.2h1.4c0.4,0,0.8-0.2,1-0.6
						c0.2-0.3,0.4-0.7,0.4-1.2c0-0.4-0.1-0.9-0.4-1.2l0,0c-0.3-0.3-0.6-0.5-1-0.5h-0.3c0.1-0.2,0.1-0.5,0.1-0.8
						c0-0.4-0.1-0.8-0.2-1.1c0-0.1-0.1-0.1-0.1-0.2l0.1-0.2c0.1-0.3,0.2-0.7,0.2-1.1c0-0.4-0.1-0.8-0.2-1.1c0-0.1-0.1-0.1-0.1-0.2
						c0-0.1,0.1-0.1,0.1-0.2c0.1-0.3,0.2-0.7,0.2-1.1c0-0.4-0.1-0.8-0.2-1.1l0,0c0-0.1,0-0.1-0.1-0.2l0.1-0.2
						c0.1-0.3,0.2-0.7,0.2-1.1c0-0.3,0-0.6-0.1-0.8h1.9c0.4,0,0.8-0.2,1.1-0.5c0.3-0.3,0.5-0.7,0.5-1.1v-0.4c0-0.4-0.2-0.8-0.5-1.1
						c-0.3-0.3-0.7-0.5-1.1-0.5h-1.9l-0.2-25.4h0c0-0.1,0-0.2-0.1-0.3l-2.2-2.6l0,0c-0.2-0.2-0.5-0.2-0.7,0l-2.3,2.6
						c-0.1,0.1-0.1,0.2-0.1,0.3v25.3h-1.9c-0.4,0-0.8,0.2-1.1,0.5c-0.3,0.3-0.5,0.7-0.5,1.1v0.4
						C1240.4,200,1240.6,200.4,1240.9,200.7L1240.9,200.7z"/>
					<path id="XMLID_215_" class="st2" d="M1658.7,273.5h7.6v-2.4h-4.8v-7.6h-2.8V273.5z M1646.1,269.6l1.1-2.8l1.1,2.8H1646.1z
						 M1641.6,273.5h2.9l0.7-1.8h3.9l0.7,1.8h3l-4.3-10.1h-2.7L1641.6,273.5z M1631.7,268.5v-2.6h1.3c0.3,0,0.6,0.1,0.9,0.1
						c0.2,0.1,0.4,0.2,0.5,0.4c0.1,0.2,0.2,0.4,0.2,0.7v0c0,0.3-0.1,0.5-0.2,0.7c-0.1,0.2-0.3,0.3-0.5,0.5c-0.2,0.1-0.5,0.2-0.9,0.2
						H1631.7z M1628.9,273.5h2.8v-2.9h1.4c0.6,0,1.2-0.1,1.7-0.2c0.5-0.2,1-0.4,1.4-0.7c0.4-0.3,0.7-0.7,0.9-1.1
						c0.2-0.4,0.3-1,0.3-1.6v0c0-0.6-0.1-1.1-0.3-1.5c-0.2-0.4-0.5-0.8-0.8-1.1c-0.4-0.3-0.8-0.5-1.3-0.7c-0.5-0.2-1.1-0.2-1.7-0.2
						h-4.3V273.5z M1619.4,273.5h2.8v-10h-2.8V273.5z M1608.9,273.7c0.7,0,1.4-0.1,1.9-0.3c0.5-0.2,1-0.5,1.4-0.8
						c0.4-0.3,0.8-0.7,1.1-1.2l-2.1-1.5c-0.2,0.2-0.4,0.5-0.6,0.6c-0.2,0.2-0.5,0.3-0.7,0.4c-0.3,0.1-0.6,0.2-0.9,0.2
						c-0.4,0-0.7-0.1-1-0.2c-0.3-0.1-0.5-0.3-0.8-0.6c-0.2-0.2-0.4-0.5-0.5-0.8c-0.1-0.3-0.2-0.7-0.2-1.1v0c0-0.4,0.1-0.7,0.2-1
						c0.1-0.3,0.3-0.6,0.5-0.8c0.2-0.2,0.5-0.4,0.8-0.6c0.3-0.1,0.6-0.2,1-0.2c0.3,0,0.6,0.1,0.9,0.1c0.3,0.1,0.5,0.2,0.7,0.4
						c0.2,0.2,0.4,0.4,0.6,0.6l2.1-1.6c-0.3-0.4-0.6-0.8-1-1.1c-0.4-0.3-0.9-0.6-1.4-0.7c-0.5-0.2-1.1-0.3-1.8-0.3
						c-0.6,0-1.2,0.1-1.7,0.3c-0.5,0.2-1,0.4-1.5,0.7c-0.4,0.3-0.8,0.7-1.1,1.1c-0.3,0.4-0.6,0.9-0.7,1.4c-0.2,0.5-0.3,1.1-0.3,1.7
						v0c0,0.6,0.1,1.2,0.3,1.7c0.2,0.5,0.4,1,0.7,1.4c0.3,0.4,0.7,0.8,1.1,1.1c0.4,0.3,0.9,0.5,1.4,0.7
						C1607.8,273.6,1608.3,273.7,1608.9,273.7z M1594.6,273.5h2.8v-10h-2.8V273.5z M1578.4,273.5h2.7V268l4.3,5.5h2.4v-10h-2.7v5.3
						l-4.1-5.3h-2.6V273.5z M1567.2,273.7c0.7,0,1.4-0.1,1.9-0.3c0.6-0.2,1.1-0.5,1.5-0.8c0.4-0.4,0.7-0.9,0.9-1.4
						c0.2-0.6,0.3-1.3,0.3-2.1v-5.5h-2.8v5.6c0,0.5-0.1,0.9-0.2,1.2c-0.2,0.3-0.4,0.5-0.6,0.7c-0.3,0.1-0.6,0.2-1,0.2
						c-0.4,0-0.7-0.1-1-0.2c-0.3-0.2-0.5-0.4-0.6-0.7c-0.2-0.3-0.2-0.7-0.2-1.2v-5.6h-2.8v5.6c0,0.8,0.1,1.5,0.3,2
						c0.2,0.6,0.5,1.1,0.9,1.4c0.4,0.4,0.9,0.7,1.5,0.8C1565.9,273.6,1566.5,273.7,1567.2,273.7z M1545.4,273.5h2.7v-5.7l2.5,3.9
						h0.1l2.6-3.9v5.7h2.8v-10h-2.9l-2.4,3.9l-2.4-3.9h-2.9V273.5z M1521.1,269.6l1.1-2.8l1.1,2.8H1521.1z M1516.6,273.5h2.9
						l0.7-1.8h3.9l0.7,1.8h3l-4.3-10.1h-2.7L1516.6,273.5z M1505.2,268.3v-2.4h1.8c0.3,0,0.6,0,0.8,0.1c0.2,0.1,0.4,0.2,0.5,0.4
						c0.1,0.2,0.2,0.4,0.2,0.7v0c0,0.4-0.1,0.7-0.4,0.9c-0.3,0.2-0.6,0.3-1.1,0.3H1505.2z M1502.4,273.5h2.8v-3h1.2l2,3h3.2
						l-2.4-3.5c0.4-0.2,0.8-0.4,1.1-0.7c0.3-0.3,0.5-0.6,0.7-1c0.2-0.4,0.3-0.8,0.3-1.4v0c0-0.5-0.1-0.9-0.2-1.3
						c-0.1-0.4-0.4-0.7-0.7-1c-0.3-0.3-0.8-0.6-1.3-0.8c-0.5-0.2-1.2-0.3-2-0.3h-4.7V273.5z M1491.2,273.7c0.7,0,1.4-0.1,1.9-0.3
						c0.6-0.2,1.1-0.5,1.5-0.8c0.4-0.4,0.7-0.9,0.9-1.4c0.2-0.6,0.3-1.3,0.3-2.1v-5.5h-2.8v5.6c0,0.5-0.1,0.9-0.2,1.2
						c-0.2,0.3-0.4,0.5-0.6,0.7c-0.3,0.1-0.6,0.2-1,0.2s-0.7-0.1-1-0.2c-0.3-0.2-0.5-0.4-0.6-0.7c-0.2-0.3-0.2-0.7-0.2-1.2v-5.6
						h-2.8v5.6c0,0.8,0.1,1.5,0.3,2c0.2,0.6,0.5,1.1,0.9,1.4c0.4,0.4,0.9,0.7,1.5,0.8C1489.9,273.6,1490.5,273.7,1491.2,273.7z
						 M1474.9,273.5h2.8v-7.6h3v-2.4h-8.8v2.4h3V273.5z M1462.9,273.5h2.8v-10h-2.8V273.5z M1448.5,273.5h8.1v-2.4h-5.4v-1.6h4.8
						v-2.2h-4.8v-1.5h5.3v-2.4h-8V273.5z M1434.3,273.5h2.8v-3.6h4.7v-2.3h-4.7v-1.7h5.2v-2.4h-8V273.5z M1419.9,273.5h8.1v-2.4
						h-5.4v-1.6h4.8v-2.2h-4.8v-1.5h5.3v-2.4h-8V273.5z M1407.5,268.3v-2.4h1.8c0.3,0,0.6,0,0.8,0.1c0.2,0.1,0.4,0.2,0.5,0.4
						c0.1,0.2,0.2,0.4,0.2,0.7v0c0,0.4-0.1,0.7-0.4,0.9c-0.3,0.2-0.6,0.3-1.1,0.3H1407.5z M1404.8,273.5h2.8v-3h1.2l2,3h3.2
						l-2.4-3.5c0.4-0.2,0.8-0.4,1.1-0.7c0.3-0.3,0.5-0.6,0.7-1c0.2-0.4,0.3-0.8,0.3-1.4v0c0-0.5-0.1-0.9-0.2-1.3
						c-0.1-0.4-0.4-0.7-0.7-1c-0.3-0.3-0.8-0.6-1.3-0.8c-0.5-0.2-1.2-0.3-2-0.3h-4.7V273.5z M1393,268.5v-2.6h1.3
						c0.3,0,0.6,0.1,0.9,0.1c0.2,0.1,0.4,0.2,0.5,0.4c0.1,0.2,0.2,0.4,0.2,0.7v0c0,0.3-0.1,0.5-0.2,0.7c-0.1,0.2-0.3,0.3-0.5,0.5
						c-0.2,0.1-0.5,0.2-0.9,0.2H1393z M1390.3,273.5h2.8v-2.9h1.4c0.6,0,1.2-0.1,1.7-0.2c0.5-0.2,1-0.4,1.4-0.7
						c0.4-0.3,0.7-0.7,0.9-1.1c0.2-0.4,0.3-1,0.3-1.6v0c0-0.6-0.1-1.1-0.3-1.5c-0.2-0.4-0.5-0.8-0.8-1.1c-0.4-0.3-0.8-0.5-1.3-0.7
						c-0.5-0.2-1.1-0.2-1.7-0.2h-4.3V273.5z"/>
					<path id="XMLID_187_" class="st2" d="M1661.4,168.1h-12.1l6.1-14.8L1661.4,168.1z M1679.6,187.2l-19.6-46h-9.3l-19.6,46h10.2
						l4.2-10.2h19.3l4.2,10.2H1679.6z M1627,187.2v-45.6h-9.9v28.1l-21.4-28.1h-9.3v45.6h9.9v-29l22.1,29H1627z M1577.9,187.2v-45.6
						h-10v45.6H1577.9z M1552.6,157.6c0,1.3-0.3,2.5-0.9,3.5c-0.6,1-1.5,1.9-2.7,2.5c-1.2,0.6-2.6,0.9-4.3,0.9h-8v-13.9h7.8
						c1.7,0,3.1,0.3,4.3,0.8c1.2,0.5,2.2,1.3,2.8,2.3c0.7,1,1,2.3,1,3.8V157.6z M1562.8,157.4v-0.1c0-2.3-0.4-4.5-1.2-6.4
						c-0.8-1.9-1.9-3.6-3.5-5s-3.3-2.5-5.5-3.2c-2.2-0.8-4.6-1.1-7.3-1.2h-18.6v45.6h10v-13.7h7.6c2.6,0,5-0.3,7.2-1
						c2.2-0.7,4.2-1.7,5.9-3c1.7-1.3,3-3,3.9-5C1562.3,162.4,1562.8,160.1,1562.8,157.4z M1518.5,187.2v-45.6h-10.8l-12,19.3
						l-12-19.3h-10.8v45.6h9.8v-29.6l12.7,19.3h0.3l12.8-19.5v29.8H1518.5z M1450.4,168.1h-12.1l6.1-14.8L1450.4,168.1z
						 M1468.7,187.2l-19.6-46h-9.3l-19.6,46h10.2l4.2-10.2h19.3l4.2,10.2H1468.7z M1419,179.8l-6.4-6.5c-1.2,1.1-2.4,2-3.5,2.8
						c-1.2,0.8-2.5,1.4-3.8,1.8c-1.4,0.4-2.9,0.7-4.6,0.7c-2,0-3.7-0.4-5.4-1.1c-1.6-0.7-3-1.8-4.2-3.1c-1.2-1.3-2.1-2.8-2.7-4.6
						c-0.6-1.7-1-3.6-1-5.5v-0.1c0-2,0.3-3.8,1-5.5c0.6-1.7,1.6-3.2,2.7-4.5c1.2-1.3,2.6-2.3,4.2-3.1c1.6-0.7,3.4-1.1,5.3-1.1
						c1.5,0,2.9,0.2,4.3,0.6c1.3,0.4,2.6,1,3.8,1.8c1.2,0.8,2.4,1.7,3.6,2.8l6.4-7.4c-1.4-1.4-2.9-2.6-4.6-3.7
						c-1.7-1.1-3.6-1.9-5.8-2.5c-2.2-0.6-4.7-0.9-7.6-0.9c-2.8,0-5.4,0.4-7.9,1.2c-2.4,0.8-4.6,1.9-6.6,3.4c-2,1.4-3.6,3.2-5,5.1
						c-1.4,2-2.5,4.1-3.2,6.5c-0.7,2.3-1.1,4.8-1.1,7.4v0.1c0,2.6,0.4,5.1,1.1,7.5c0.8,2.3,1.8,4.5,3.2,6.4c1.4,2,3.1,3.6,5,5.1
						c1.9,1.4,4.1,2.5,6.4,3.3c2.4,0.8,4.9,1.2,7.6,1.2c2.2,0,4.2-0.2,6-0.6c1.8-0.4,3.4-0.9,4.9-1.6c1.5-0.7,2.9-1.6,4.2-2.6
						C1416.6,182.2,1417.9,181,1419,179.8z"/>
					<path id="XMLID_172_" class="st2" d="M1665.7,243v-8.9h-24.8v-9.6h21.5v-8.9h-21.5v-9.3h24.4v-8.9H1631V243H1665.7z
						 M1614.4,220.3c0,2-0.3,3.9-1,5.5c-0.7,1.7-1.6,3.1-2.8,4.3c-1.2,1.2-2.7,2.1-4.3,2.8c-1.7,0.7-3.6,1-5.6,1h-7.8v-27.5h7.8
						c2.1,0,3.9,0.3,5.6,1c1.7,0.7,3.1,1.6,4.3,2.8c1.2,1.2,2.1,2.7,2.8,4.3c0.7,1.7,1,3.5,1,5.6V220.3z M1624.9,220.2v-0.1
						c0-3.2-0.6-6.2-1.8-9c-1.2-2.7-2.8-5.1-5-7.2c-2.2-2.1-4.7-3.7-7.7-4.8c-3-1.1-6.2-1.7-9.8-1.7h-17.8V243h17.8
						c2.9,0,5.6-0.4,8-1.1c2.5-0.7,4.7-1.8,6.7-3.2c2-1.4,3.7-3,5.1-4.9c1.4-1.9,2.5-4,3.3-6.3
						C1624.5,225.2,1624.8,222.8,1624.9,220.2z M1574.7,243v-45.6h-9.9v28.1l-21.4-28.1h-9.3V243h9.9v-29l22.1,29H1574.7z
						 M1511.6,223.9h-12.1l6.1-14.8L1511.6,223.9z M1529.9,243l-19.6-46h-9.3l-19.6,46h10.2l4.2-10.2h19.3l4.2,10.2H1529.9z
						 M1469,213.1c0,1.3-0.3,2.4-0.9,3.4c-0.6,1-1.5,1.7-2.6,2.3c-1.2,0.5-2.5,0.8-4.2,0.8h-10.2v-13.1h10c1.6,0,3,0.2,4.2,0.7
						c1.2,0.5,2.1,1.2,2.7,2.2c0.6,1,1,2.2,1,3.6V213.1z M1480.6,243l-11.1-16.3c1.9-0.7,3.7-1.7,5.1-3c1.5-1.3,2.6-2.8,3.4-4.7
						c0.8-1.9,1.2-4,1.2-6.5v-0.1c0-3.1-0.7-5.8-2.1-8.1c-1.4-2.2-3.3-4-5.9-5.2c-2.6-1.2-5.6-1.8-9.2-1.8h-20.9V243h10v-14.6h7.9
						l9.8,14.6H1480.6z M1434.3,236.5v-19.8h-19.8v8.7h10.1v6.5c-1.3,0.9-2.7,1.6-4.3,2.1c-1.6,0.5-3.3,0.7-5.1,0.7
						c-2,0-3.9-0.4-5.6-1.1c-1.7-0.7-3.1-1.7-4.4-3c-1.2-1.3-2.2-2.8-2.9-4.6c-0.7-1.8-1-3.7-1-5.8v-0.1c0-2,0.3-3.8,1-5.5
						c0.7-1.7,1.6-3.2,2.8-4.5c1.2-1.3,2.6-2.3,4.2-3.1c1.6-0.7,3.3-1.1,5.1-1.1c1.7,0,3.3,0.2,4.7,0.5c1.4,0.4,2.6,0.9,3.8,1.6
						c1.2,0.7,2.3,1.5,3.5,2.5l6.3-7.6c-1.2-1-2.4-1.9-3.7-2.7c-1.3-0.8-2.6-1.4-4-2c-1.4-0.5-3-0.9-4.7-1.2
						c-1.7-0.3-3.6-0.4-5.6-0.4c-2.8,0-5.4,0.4-7.8,1.2c-2.4,0.8-4.6,1.9-6.6,3.4c-2,1.4-3.7,3.2-5.1,5.1c-1.4,2-2.5,4.1-3.3,6.5
						c-0.8,2.3-1.2,4.8-1.2,7.4v0.1c0,3.4,0.6,6.5,1.7,9.4c1.2,2.9,2.8,5.3,4.9,7.4c2.1,2.1,4.6,3.7,7.6,4.9
						c2.9,1.2,6.2,1.7,9.7,1.8c2.8,0,5.4-0.3,7.7-1c2.4-0.7,4.5-1.5,6.5-2.6C1431,239.1,1432.7,237.9,1434.3,236.5z"/>
				</g>
			</g>
		</g>
		<g>
			<path class="st7" d="M299.1,246.8c-16.5,0-29.5-11.7-29.5-26.3V171h22.2v51.6c0,6.5,5.7,11.7,12.9,11.7c6.9,0,13-5.2,13-11.7V171
				h10.5v49.6C328.2,235.1,315.3,246.8,299.1,246.8 M236.5,216.9l-13.7-4c-8.4-2.8-14.5-11.3-14.5-20.6c0-12.1,9.7-21.7,21.8-21.7
				h27.1v9.6h-19c-3.6,0-6.8,2.8-6.8,6.9c0,2.4,1.6,5.3,4.4,6l13.3,4.4c8.9,2.8,13.7,12.1,13.7,22.6c0,13.3-10.5,24.2-23.8,24.2
				h-28.7v-10.9h24.6c3.6,0,7.7-3.6,7.7-8.4C242.6,221.4,240.2,218.2,236.5,216.9 M362.6,216.9l-13.8-4
				c-8.9-2.8-14.9-11.3-14.9-20.6c0-12.1,9.6-21.7,21.8-21.7h27.1v9.6h-19c-3.7,0-6.9,2.8-6.9,6.9c0,2.4,1.6,5.3,4.5,6l13.3,4.4
				c9.3,2.8,14.2,12.1,14.2,22.6c0,13.3-10.9,24.2-24.3,24.2h-28.7v-10.9h24.6c3.6,0,7.7-3.6,7.7-8.4
				C368.3,221.4,366.2,218.2,362.6,216.9"/>
			<path class="st7" d="M550,244.1h8.7v55.7c-1.1-5.8-4.3-39.7-3.9-50.5C553.7,248.1,550,244.1,550,244.1 M484.7,184.6L484.7,184.6
				l-9.3-9.5c-12.4,0.2-52.4-4.1-65.3-6.3v71.6c64.2,6.3,97.9,7.9,135.5,6.8h0.6L484.7,184.6z M485.2,164.6h71.7V95.1h-71.7V164.6z
				 M429.6,168.8c4.8,0.4,46.7,4.1,49.5,4.1l66.4,67.6h85.4v-71.6H429.6z M550.4,251.1c0,0-38.3,2.6-70.9-0.3
				c0.7,39.6,5.4,60,6.2,64.3h71.2C553.5,294.2,550.8,260.5,550.4,251.1"/>
		</g>
		<path class="st8" d="M687,333.9h-1.7c-0.1,0-0.1,0-0.1-0.1V76.4c0-0.1,0-0.1,0.1-0.1h1.7c0.1,0,0.1,0,0.1,0.1v257.4
			C687.1,333.8,687.1,333.9,687,333.9z"/>
	</g>
</g>
</svg>
